<svg width="80" height="80" viewBox="0 0 80 80" fill="none" xmlns="http://www.w3.org/2000/svg">
<g filter="url(#filter0_d)">
<rect x="16" y="16" width="48" height="48" rx="24" fill="#F8FCF8"/>
<path d="M54.1419 41.9181C54.69 40.99 55 40 55 38.8031C55 36.0522 52.6739 33.4544 49.6362 33.4544H47.3563C47.6638 32.6538 47.9094 31.6962 47.9094 30.5456C47.9094 25.996 45.5537 24 41.955 24C38.1046 24 38.3242 29.9333 37.47 30.7875C36.0483 32.2092 34.3691 34.9404 33.1725 36H27C25.8954 36 25 36.8954 25 38V53C25 54.1046 25.8954 55 27 55H31C31.9308 55 32.713 54.3641 32.9361 53.5031C35.7179 53.5657 37.6274 55.9994 44.0487 55.9994C44.5 55.9994 45 56 45.4375 56C50.2573 56 52.4366 53.5361 52.4963 50.0419C53.3287 48.8903 53.7649 47.3468 53.58 45.855C54.1959 44.7017 54.434 43.3336 54.1419 41.9181ZM50.2825 45.2825C51.0675 46.6031 50.3612 48.3706 49.4112 48.8806C49.8925 51.9294 48.3107 52.9994 46.0912 52.9994H43.7275C39.2501 52.9994 36.3507 50.6356 33 50.6356V39H33.6825C35.455 39 37.9313 34.5694 39.5913 32.9087C41.3638 31.1362 40.7731 28.1819 41.955 27C44.9094 27 44.9094 29.0613 44.9094 30.5456C44.9094 32.9937 43.1369 34.0906 43.1369 36.4544H49.6362C50.9556 36.4544 51.9944 37.6362 52 38.8181C52.0056 39.9994 51.1988 41.1812 50.6081 41.1812C51.4512 42.0909 51.6313 44.0085 50.2825 45.2825ZM30.5 51C30.5 51.8284 29.8284 52.5 29 52.5C28.1716 52.5 27.5 51.8284 27.5 51C27.5 50.1716 28.1716 49.5 29 49.5C29.8284 49.5 30.5 50.1716 30.5 51Z" fill="#2E6B2E"/>
<rect x="16.5" y="16.5" width="47" height="47" rx="23.5" stroke="#DBF0DB"/>
</g>
<defs>
<filter id="filter0_d" x="0" y="0" width="80" height="80" filterUnits="userSpaceOnUse" color-interpolation-filters="sRGB">
<feFlood flood-opacity="0" result="BackgroundImageFix"/>
<feColorMatrix in="SourceAlpha" type="matrix" values="0 0 0 0 0 0 0 0 0 0 0 0 0 0 0 0 0 0 127 0" result="hardAlpha"/>
<feOffset/>
<feGaussianBlur stdDeviation="8"/>
<feColorMatrix type="matrix" values="0 0 0 0 0.180392 0 0 0 0 0.419608 0 0 0 0 0.180392 0 0 0 0.4 0"/>
<feBlend mode="normal" in2="BackgroundImageFix" result="effect1_dropShadow"/>
<feBlend mode="normal" in="SourceGraphic" in2="effect1_dropShadow" result="shape"/>
</filter>
</defs>
</svg>
