<svg xmlns="http://www.w3.org/2000/svg" width="529" height="528" viewBox="0 0 529 528" fill="none"><style>.a{fill:#F2E82F;}.b{fill:white;}</style><path d="M407 1.1V0.8H128.3V0.8C57.4 2.2 0.3 60.2 0.3 131.4V396.7C0.3 468.9 58.8 527.4 131 527.4H405.6V527.2C474.1 523 528.3 466.2 528.3 396.7V131.4C528.3 62.4 474.8 5.9 407 1.1Z" fill="url(#paint0_linear)"/><path d="M129.8 185.1C129.5 185 129.2 184.9 128.9 184.8 129.1 184.6 129.3 184.4 129.5 184.1L129.8 185.1ZM491.6 350.1C490.2 347.6 487.9 345.7 485.1 344.9L459.5 337.6C458.6 337.3 457.6 337.2 456.6 337.2 454.7 337.2 452.8 337.7 451.2 338.6 449.7 339.5 448.6 340.6 447.7 342 447.5 342.3 447.2 342.7 447 343.1 446.9 343.2 446.9 343.3 446.8 343.5 445.1 346.8 442.8 353 441 358.2 439.1 355 436.8 352 434.2 349.4 438.4 347.2 442.3 344.7 445.7 341.7 456.5 332.5 463.4 320.2 466.4 304.9 472.6 294.1 475.8 280.9 475.8 265.5 475.8 248.4 471.9 233.2 464.3 220.3 457.7 209.1 448.8 200.2 437.9 193.5 443.5 188.5 448.3 182.7 452.2 176.1 456.5 168.9 459.3 161.3 460.8 153.4 466.6 142.9 469.6 131.6 469.6 119.6 469.6 107.3 466.4 95.6 459.9 84.9 453.6 74.4 445 65.8 434.4 59.6 423.6 53.2 411.8 50 399.2 50 386.6 50 374.7 53.2 363.8 59.5 353.1 65.6 344.5 74 338.1 84.3L337.9 62.8C337.9 60 336.7 57.2 334.7 55.2 332.7 53.2 330 52.1 327.2 52.1 327.1 52.1 295.6 52.7 295.6 52.7 292.3 52.8 289.5 54.4 287.5 56.8 282.4 62.5 277.4 79.8 277.4 84.7L277.4 91.9 276.2 91.9V63.1C276.2 57.1 271.4 52.3 265.4 52.3H234.1C228.2 52.3 223.4 57.1 223.4 63.1V63.9L193 49.4C191.5 48.7 190 48.4 188.4 48.4 186.9 48.4 185.4 48.7 184 49.3 181.1 50.6 178.9 53.1 178 56.2L173.3 72.5C171.9 73.8 170.9 75.4 170.3 77.3L168.1 85.2 162.6 62.6C161.4 57.8 157.1 54.4 152.1 54.4H123.2C118.3 54.4 114.1 57.6 112.8 62.3L108.5 78.2C107.3 79.2 106.3 80.6 105.6 82.1L99.4 59.3C98.7 56.5 96.8 54.1 94.2 52.7 92.6 51.8 90.8 51.4 89 51.4 88 51.4 86.9 51.6 85.8 51.9L50.9 62.7C48 63.6 45.8 65.6 44.5 68.1 39.5 74.1 34.6 92.4 36.1 97.3L66.9 197.4C63.2 200.8 59.9 204.6 57.3 209 56.4 210.3 55.7 211.7 55 213.1 54.5 213.6 53.9 214.2 53.3 215 44.4 226.9 41.7 248.2 41.7 258.7 41.7 271.2 45.3 281.4 52.2 289.2L45.4 298.5C44.4 299.9 43.8 301.4 43.6 302.9L37.7 319.7C34.6 323.9 35.1 329.7 38.7 333.5 41.5 336.4 44.5 339 47.7 341.4 47.2 341.8 46.6 342.3 46.2 342.8 45.9 343.1 45.7 343.5 45.4 343.8 44.5 344.3 43.6 345 42.9 345.8 40.9 348 35.5 369 35.7 372L37.4 396.3C37.8 402 42.5 406.3 48.1 406.3 48.2 406.3 62.7 406 62.7 406L62.9 464.6C62.9 467.5 64.1 470.3 66.3 472.3 68.3 474.2 70.9 475.3 73.7 475.3 73.8 475.3 98.3 474.2 98.3 474.2 102.6 474 106.3 471.2 107.8 467.4 112.2 460.3 116.2 446.5 116.2 442.2L116.1 404.7 121.7 404.6 122.3 463.7C122.3 469.6 127.1 474.3 133.1 474.3H158.2C161.1 474.3 163.8 473.2 165.9 471.2 166.6 470.4 167.2 469.6 167.6 468.8 170.6 471 173.7 473 177 474.6 183.9 478.1 190.8 479.8 197.6 479.8 199.6 479.8 201.6 479.6 203.6 479.3 208.8 478.4 212.5 473.9 212.5 468.7V457.8C215.2 461.3 218.2 464.4 221.6 466.9 229.6 472.9 239 475.9 249.7 475.9 260.2 475.9 269.5 473 277.4 467.2 281.8 463.9 285.6 459.8 288.8 455L289.1 464C289.2 469.8 294 474.4 299.8 474.4H364.4C369.6 474.4 373.9 470.8 374.9 466 375.5 466.8 376.1 467.7 376.8 468.5 381.3 473.3 387.2 475.9 393.8 475.9 400.5 475.9 406.3 473.2 410.7 468.2 414.7 463.6 416.8 457.8 416.8 451.4 416.8 450.5 416.7 449.7 416.6 448.8 417 448.5 417.4 448.1 417.8 447.7 417.9 451.2 418.9 454.8 420.6 458.1 423.7 464 428.9 468.2 435.4 470.1 437.7 470.7 440 471 442.2 471 446.4 471 450.5 469.9 454.2 467.7 459.7 464.4 463.6 459.2 465.5 452.9 466.4 449.6 466.7 446.3 466.3 443.2 469.5 440.1 471.9 436.2 473.1 431.8 474.4 427.3 474.5 423 473.4 419L473.7 417.9C475.1 416.6 476.2 415 476.7 413.1L492.5 358.3C493.3 355.5 493 352.6 491.6 350.1Z" fill="#182E5E"/><path d="M188.4 59.2L225 76.6 185.4 179.9H153.6L136.6 123.9 121.4 177.1 86 176.7 54.1 73 89 62.2 106.5 126.4 123.2 65.2H152.1L167.9 130 188.4 59.2ZM296.6 178.2L296.3 134.7 265.4 133.6V177.1H234.1V63.1H265.4V102.4L296.1 103.2 295.8 63.5 327.2 62.9 327.9 178.3 296.6 178.2ZM412.6 144.8C417.2 142.3 420.8 138.8 423.5 134.4 426.2 130 427.5 125.1 427.5 119.6 427.5 114.4 426.2 109.7 423.6 105.4 421 101.2 417.5 97.8 413.1 95.4 408.7 93 403.8 91.8 398.5 91.8 393.2 91.8 388.3 93.1 383.9 95.6 379.5 98.1 376 101.5 373.5 105.7 371 110 369.7 114.7 369.7 120 369.7 125.2 371 130 373.6 134.3 376.1 138.7 379.6 142.2 383.9 144.7 388.2 147.3 393 148.6 398.2 148.6 403.3 148.6 408.1 147.3 412.6 144.8ZM369.1 171.3C359.8 165.8 352.4 158.4 346.8 149.2 341.2 139.9 338.4 130.1 338.4 119.8 338.4 109.4 341.2 99.6 346.8 90.5 352.4 81.4 359.8 74.2 369.1 68.9 378.5 63.5 388.5 60.8 399.2 60.8 409.9 60.8 419.8 63.5 428.9 68.9 438 74.2 445.3 81.4 450.7 90.4 456.1 99.5 458.9 109.2 458.9 119.6 458.9 130.3 456.1 140.2 450.6 149.5 445.2 158.7 437.8 166 428.6 171.5 419.4 177 409.5 179.7 398.9 179.7 388.3 179.7 378.3 176.9 369.1 171.3ZM78.6 320.9C68.9 317 60.7 311.7 54.1 304.9L71.6 280.8C83.7 289.7 95.6 294.1 107.5 294.1 112.1 294.1 115.8 293.3 118.6 291.5 121.4 289.8 122.8 287.4 122.8 284.4 122.8 281.4 121 279.3 117.6 278 114.1 276.7 108.5 275.7 100.8 274.9 87.7 273.4 77.7 269.6 70.7 263.6 63.7 257.6 60.2 248.9 60.2 237.6 60.2 229 62.3 221.4 66.4 214.6 70.6 207.9 76.4 202.6 83.9 198.8 91.3 194.9 99.8 193 109.3 193 118.4 193 127.4 194.9 136.4 198.5 145.3 202.1 153.2 207.4 159.9 214.2L142.9 237.4C136.9 233.1 131.6 230.1 127 228.3 122.5 226.5 116.8 225.6 110.1 225.6 105.1 225.6 101.4 226.4 98.8 228 96.2 229.5 94.9 231.8 94.9 234.7 94.9 237.4 96.1 239.5 98.7 240.7 101.2 242 105.3 242.7 111 243 122.9 243.3 133.6 246.2 143.1 251.6 152.5 257.1 157.3 266.5 157.3 280.1 157.3 289.2 155.1 297.3 150.6 304.3 146.2 311.4 140.1 316.9 132.5 320.8 124.9 324.7 116.4 326.7 107.2 326.7 97.8 326.7 88.3 324.8 78.6 320.9ZM222.1 262.2L240.8 263.8 232.9 232.9 222.1 262.2ZM258 329L250.4 300 208.9 298.1 198 327.6 159.9 322.6 216.9 194.1 253 194.4 295.3 323.3 258 329ZM305.7 325.9L308.5 195.8 342.1 194.1 341.1 327.6 305.7 325.9ZM419.8 284.5C425.7 279.6 428.6 271.9 428.6 261.3 428.6 254.6 427.3 248.9 424.7 244 422.1 239.2 418.6 235.5 414.1 232.9 409.7 230.4 404.8 229.1 399.5 229.1 397.3 229.1 394.9 229.4 392.4 230V291.3C394.2 291.7 396.1 291.9 398.1 291.9 406.8 291.9 414 289.4 419.8 284.5ZM427.7 200.1C439.3 206.1 448.4 214.6 455 225.8 461.7 237 465 250.3 465 265.5 465 286.2 458.8 301.8 446.4 312.4 434 323 414.8 328.3 388.9 328.5 379.5 328.5 368.6 327.6 356 325.9L357.7 198.6 357.4 197.9C362.9 195.6 367.9 193.9 372.4 192.9 376.9 191.8 382.2 191.3 388 191.3 402.8 191.3 416 194.3 427.7 200.1ZM132.5 372.6L105.2 373.2 105.5 442.3 81.4 443.4 81.1 373.8 55.8 374.4 54.1 350.1 130.5 348.3 132.5 372.6ZM165.5 395.8C167 396.2 168.4 396.4 169.8 396.4 173.8 396.4 177.3 395.3 180.3 392.9 183.3 390.6 184.8 387.5 184.8 383.8 184.8 380.7 183.7 378 181.5 375.6 179.4 373.2 176.5 372 172.7 372 170 372 167.5 372.5 165.4 373.6L165.5 395.8ZM200.5 419.5C203.4 421 206.4 421.9 209.5 422.1V447.5C208.1 447.8 206.7 447.9 205.3 447.9 200.1 447.9 194.9 446.6 189.5 443.9 184.2 441.2 179.5 437.6 175.5 433.2 171.5 428.7 168.9 424 167.6 419.2L165.8 418.9 165.9 442.4H140.7L139.9 354.5C142.1 352.7 146.1 351.2 151.9 350 157.7 348.7 163 348.1 167.7 348.1 177 348.1 184.8 349.7 191.1 352.8 197.4 355.8 202.2 360 205.3 365.2 208.4 370.5 210 376.4 210 382.9 210 389.3 208.6 395.1 205.8 400.4 203 405.7 199.2 410 194.1 413.2 195.5 416 197.6 418.1 200.5 419.5ZM235.8 437.2C229.8 432.6 225.2 426.3 222 418.2 218.8 410.1 217.2 400.7 217.2 390.1 217.2 374.3 219.4 360.3 223.6 348.1L250.1 356C248.4 361.5 247.1 367.3 246.1 373.5 245.1 379.7 244.6 385.1 244.6 389.6 244.6 398.4 245.7 405.4 247.8 410.8 249.9 416.1 253 418.8 257.3 418.8 261.2 418.8 264.2 416.1 266.5 410.8 268.8 405.4 269.9 398.4 269.9 389.6 269.9 385.1 269.4 379.7 268.5 373.5 267.5 367.3 266.2 361.5 264.5 356L291 348.1C295.2 360.3 297.3 374.3 297.3 390.1 297.3 401 295.7 410.5 292.5 418.6 289.3 426.7 284.7 432.9 278.7 437.4 272.7 441.8 265.6 444 257.4 444 249 444 241.8 441.7 235.8 437.2ZM333.1 417.5L372.1 416.7V442.5H307.5L304.6 350.1 369.2 348 370.9 373 330.8 373.7 331.2 384.1 364.4 383.1 365.5 405.3 332.6 406.9 333.1 417.5Z" class="a"/><path d="M392.4 440C390 437.4 388.8 434.3 388.8 430.7 388.8 427.1 390.1 424 392.7 421.5 395.4 419 398.4 417.7 401.9 417.7 405.2 417.7 407.9 418.9 410.3 421.1 412.6 423.4 413.7 426.5 413.7 430.2 413.7 434.1 412.6 437.3 410.3 440 407.9 442.7 405 444 401.4 444 397.9 444 394.9 442.7 392.4 440ZM411.4 413.3L391.7 411.8V387.7C392.3 388 393.5 388.3 395.5 388.7 397.4 389.1 399.1 389.3 400.6 389.3 403.9 389.3 406.8 388.4 409.2 386.6 411.5 384.9 412.7 382.6 412.7 379.8 412.7 377.1 411.9 374.8 410.1 373 408.4 371.2 405.9 370.3 402.6 370.3 399.5 370.3 397 371.2 395.4 373.1 393.6 375 392.5 377.4 391.9 380.1L377 374C377.4 369.4 379 365.2 381.7 361.3 384.5 357.5 388 354.4 392.4 352.2 396.8 349.9 401.5 348.7 406.5 348.7 412.3 348.7 417.4 350.3 422 353.3 426.5 356.3 430.1 360.2 432.6 365 435.1 369.9 436.4 375 436.4 380.4 436.4 386.2 434.9 391.2 432 395.2 429.1 399.3 425.6 402.3 421.6 404.2 417.6 406.1 414.2 407 411.2 406.9L411.4 413.3ZM437.8 432C436.1 428.6 435.7 425.2 436.7 421.7 437.4 419.4 438.7 417.4 440.5 415.8 442.4 414.2 444.5 413.1 447 412.6 449.4 412 451.8 412.1 454.1 412.8 457.5 413.7 460.1 415.7 461.8 418.7 463.6 421.6 463.9 425 462.8 428.8 461.7 432.5 459.6 435.4 456.4 437.3 453.2 439.2 449.7 439.6 446.1 438.6 442.3 437.5 439.6 435.3 437.8 432ZM442.8 405.5L456.6 347.9 482.2 355.3 466.4 410.1 442.8 405.5Z" fill="#2FA0BB"/><path d="M405.2 440.3C404.9 440.3 404.6 440.2 404.5 439.9 404.3 439.5 404.5 439 404.9 438.9 406.3 438.2 407.4 437.1 408.3 435.8 409.1 434.5 409.6 433.1 409.6 431.6 409.7 430 409.4 428.5 408.7 427.1 408 425.7 407 424.6 405.6 423.7 404.3 422.9 402.8 422.4 401.3 422.3 400.8 422.3 400.5 421.9 400.5 421.5 400.5 421.1 401 420.7 401.3 420.7 403.2 420.8 404.9 421.4 406.5 422.4 408 423.5 409.2 424.8 410 426.4 410.9 428.1 411.2 429.8 411.2 431.6 411.1 433.4 410.6 435.1 409.6 436.7 408.6 438.2 407.2 439.4 405.5 440.2 405.4 440.3 405.3 440.3 405.2 440.3ZM456 435.6C455.8 435.6 455.5 435.5 455.4 435.2 455.2 434.8 455.3 434.4 455.7 434.2 457.1 433.5 458.3 432.5 459.1 431.2 460 429.9 460.4 428.4 460.5 426.9 460.5 425.3 460.2 423.8 459.5 422.4 458.8 421.1 457.8 419.9 456.5 419 455.2 418.2 453.7 417.7 452.1 417.6 451.7 417.6 451.3 417.2 451.4 416.8 451.4 416.4 451.8 416 452.2 416.1 454 416.2 455.8 416.7 457.3 417.7 458.9 418.8 460.1 420.1 460.9 421.7 461.7 423.4 462.1 425.1 462 427 461.9 428.8 461.4 430.5 460.4 432 459.4 433.6 458.1 434.8 456.4 435.6 456.3 435.6 456.2 435.6 456 435.6Z" class="a"/><path d="M424.7 167.9C424.4 167.9 424 167.7 423.9 167.3 423.6 166.9 423.8 166.3 424.3 166.1 432.9 161.8 439.9 155.6 445.1 147.6 450.2 139.8 453 131.1 453.3 121.7 453.7 112.3 451.7 103.2 447.5 94.7 443.3 86.2 437.1 79.2 429.1 74 421.1 68.8 412.1 65.8 402.5 65.3 402 65.3 401.6 64.8 401.6 64.3 401.6 63.8 402 63.4 402.6 63.4 412.6 64 421.8 67 430.2 72.4 438.4 77.8 444.8 85 449.2 93.8 453.6 102.6 455.6 112 455.3 121.8 454.9 131.5 452 140.6 446.7 148.7 441.3 157 434.1 163.4 425.1 167.8 425 167.8 424.9 167.9 424.7 167.9ZM104.5 132.3C104.1 132.3 103.7 132 103.5 131.6L85 64.9C84.8 64.4 85.1 63.9 85.6 63.7 86.2 63.6 86.7 63.9 86.8 64.4L105.4 131C105.5 131.6 105.2 132.1 104.7 132.2 104.6 132.2 104.6 132.3 104.5 132.3ZM164.7 136.7C164.3 136.7 163.9 136.4 163.8 136L147.7 67.5C147.6 66.9 147.9 66.4 148.5 66.3 149 66.2 149.5 66.5 149.6 67L165.6 135.6C165.7 136.1 165.4 136.6 164.9 136.7 164.8 136.7 164.8 136.7 164.7 136.7ZM181.3 179C181.2 179 181.1 179 181 178.9 180.5 178.7 180.3 178.2 180.5 177.7L220.8 77.1C221 76.6 221.6 76.4 222.1 76.6 222.6 76.8 222.8 77.4 222.6 77.8L182.2 178.4C182.1 178.8 181.7 179 181.3 179ZM262.1 107.9C261.8 107.9 261.6 107.8 261.4 107.6 261.2 107.5 261.1 107.2 261.1 107V65.3C261.1 64.8 261.5 64.4 262.1 64.4 262.6 64.4 263 64.8 263 65.3V106L294.7 105.4C295.2 105.4 295.7 105.8 295.7 106.3 295.7 106.8 295.3 107.3 294.8 107.3L262.1 107.9H262.1ZM323.6 175.8C323 175.8 322.6 175.4 322.6 174.9V65.3C322.6 64.8 323 64.4 323.6 64.4 324.1 64.4 324.5 64.8 324.5 65.3V174.9C324.5 175.4 324.1 175.8 323.6 175.8ZM141 234.6C140.9 234.6 140.7 234.5 140.5 234.4 140.1 234.1 139.9 233.5 140.2 233.1L153.1 213.5C137.7 198.7 115.3 196.7 115.1 196.7 114.5 196.6 114.1 196.2 114.2 195.6 114.2 195.1 114.7 194.7 115.2 194.8 115.5 194.8 139.1 196.9 155 212.7 155.3 213.1 155.4 213.5 155.1 213.9L141.8 234.1C141.7 234.4 141.4 234.6 141 234.6ZM290.1 321.7C289.7 321.7 289.3 321.5 289.2 321.1L248.7 197.3C248.6 196.8 248.8 196.2 249.4 196.1 249.9 195.9 250.4 196.2 250.6 196.7L291 320.5C291.2 321 290.9 321.5 290.4 321.7 290.3 321.7 290.2 321.7 290.1 321.7ZM240.8 268.7H240.7L216.1 266.1C215.8 266.1 215.5 265.9 215.4 265.7 215.2 265.4 215.2 265.1 215.3 264.8L229.2 228.2C229.4 227.7 229.9 227.5 230.4 227.7 230.9 227.8 231.2 228.4 231 228.9L217.5 264.3 240.9 266.7C241.4 266.8 241.8 267.3 241.8 267.8 241.7 268.3 241.3 268.7 240.8 268.7ZM337.4 325.5C336.9 325.5 336.5 325.1 336.5 324.5V197C336.5 196.5 336.9 196 337.4 196 338 196 338.4 196.5 338.4 197V324.5C338.4 325.1 338 325.5 337.4 325.5ZM406.3 326.1C405.8 326.1 405.4 325.8 405.3 325.3 405.2 324.8 405.6 324.3 406.1 324.2 427.6 320.9 443 312.5 451.8 299 460.9 285.2 462.7 266.4 457.1 244.6 447.3 206.4 406.5 196.7 406.1 196.7 405.5 196.5 405.2 196 405.3 195.5 405.5 195 406 194.7 406.5 194.8 406.9 194.9 448.8 204.8 459 244.1 464.7 266.5 462.8 285.8 453.4 300.1 444.3 314 428.5 322.7 406.4 326.1 406.4 326.1 406.3 326.1 406.3 326.1ZM127.1 371C126.6 371 126.2 370.6 126.2 370.1L125.6 351.1C125.5 350.6 126 350.1 126.5 350.1 127 350.1 127.5 350.5 127.5 351L128.1 370C128.1 370.5 127.7 370.9 127.2 371H127.1ZM101.9 440.4C101.4 440.4 100.9 440 100.9 439.5L99.7 374C99.7 373.5 100.1 373.1 100.6 373.1H100.6C101.1 373.1 101.6 373.5 101.6 374L102.9 439.5C102.9 440 102.4 440.4 101.9 440.4H101.9ZM205.1 425.9H205.1C192.7 425.3 186.3 414.5 186 414.1 185.9 413.8 185.8 413.5 185.9 413.3 186 413 186.2 412.8 186.5 412.7 208.2 403.6 204.2 379.9 204.2 379.6 201.2 354.2 168.8 352.7 168.5 352.7 167.9 352.6 167.5 352.2 167.5 351.7 167.6 351.1 168 350.7 168.5 350.7H168.5C168.9 350.7 202.9 352.3 206.1 379.4 206.1 379.6 210.2 404 188.3 414 190.1 416.5 195.9 423.5 205.2 424 205.7 424 206.1 424.5 206.1 425 206.1 425.5 205.6 425.9 205.1 425.9ZM280 433.5C279.7 433.5 279.5 433.4 279.3 433.2 278.9 432.9 278.9 432.3 279.3 431.9 302.6 406.1 286.8 353.1 286.6 352.6 286.5 352.1 286.8 351.6 287.3 351.4 287.8 351.3 288.3 351.5 288.5 352.1 288.5 352.2 292.6 365.8 293.7 382.4 294.7 397.9 293.3 419.2 280.7 433.2 280.5 433.4 280.2 433.5 280 433.5ZM256.1 423.3C255.5 423.3 254.9 423.2 254.3 423.1 246.3 421.6 241.4 410.7 241.2 410.2 232.9 389.8 244.5 359.6 245 358.3 245.2 357.8 245.7 357.6 246.2 357.7 246.7 357.9 247 358.5 246.8 359 246.6 359.3 235 389.8 243 409.4 243 409.5 247.7 419.9 254.7 421.2 257.8 421.8 261 420.5 264.1 417.3 264.5 416.9 265.1 416.9 265.5 417.3 265.9 417.7 265.9 418.3 265.5 418.7 262.4 421.7 259.3 423.3 256.1 423.3ZM367.1 371.9C366.6 371.9 366.2 371.5 366.2 371L365 352.4 308.4 354.2H308.4C307.9 354.2 307.4 353.8 307.4 353.3 307.4 352.8 307.8 352.3 308.4 352.3L365.8 350.4H365.8C366.4 350.4 366.8 350.8 366.8 351.3L368.1 370.9C368.1 371.4 367.7 371.9 367.2 371.9H367.1ZM362.4 402.4C361.9 402.4 361.4 402 361.4 401.5L359.7 386.7 332.8 387.6C332.2 387.6 331.8 387.2 331.8 386.7 331.8 386.1 332.2 385.7 332.7 385.7L360.5 384.7C361 384.7 361.4 385.1 361.5 385.6L363.3 401.3C363.3 401.8 363 402.3 362.4 402.4H362.4ZM368.4 440.1C367.8 440.1 367.4 439.7 367.4 439.2V421.2L334.3 421.8C333.7 421.9 333.3 421.4 333.3 420.9 333.3 420.3 333.7 419.9 334.3 419.9L368.4 419.3C368.6 419.2 368.9 419.4 369 419.5 369.2 419.7 369.3 420 369.3 420.2V439.2C369.3 439.7 368.9 440.1 368.4 440.1Z" class="b"/><path d="M424 399.4C423.6 399.4 423.3 399.2 423.2 399 422.9 398.5 423 397.9 423.4 397.6 432.3 391.7 430.6 376 430.6 375.8 425.8 353 403.4 353.9 403.2 353.9 402.6 354 402.2 353.5 402.2 353 402.1 352.5 402.5 352 403.1 352 403.3 352 427.3 351 432.5 375.5 432.6 376.3 434.3 392.7 424.5 399.2 424.3 399.3 424.1 399.4 424 399.4Z" class="a"/><path d="M112 324.9C111.5 324.9 111.1 324.5 111 324.1 110.9 323.6 111.3 323.1 111.8 323 137.2 318.2 151.5 302.6 152.1 279.1 152.7 254.3 124.7 248.5 124.4 248.5 123.7 248.4 103.5 246.5 96.6 244.6 89 242.6 88.9 234.9 88.9 234.9 88.9 234.3 89.3 233.9 89.9 233.9 90.4 233.9 90.8 234.3 90.9 234.9 90.9 235.1 91 241.1 97.1 242.8 103.9 244.6 124.5 246.5 124.7 246.5 125.1 246.6 154.6 252.7 154 279.1 153.4 303.3 138.2 319.9 112.2 324.9H112Z" class="b"/><defs><linearGradient x1="264.1" y1="560.6" x2="264.1" y2="-19.9" gradientUnits="userSpaceOnUse"><stop stop-color="#771872"/><stop offset="1" stop-color="#BE297E"/></linearGradient></defs></svg>
