<svg width="617" height="595" viewBox="0 0 617 595" fill="none" xmlns="http://www.w3.org/2000/svg">
<path d="M451.126 33.9999H173.515V34.0399C102.851 35.4648 46 93.3239 46 164.499V429.494C46 501.575 104.272 560 176.172 560H449.798V559.749C517.979 555.625 572 498.885 572 429.494V164.499C572 95.5744 519.5 33.9999 451.126 33.9999Z" fill="url(#paint0_linear)"/>
<g filter="url(#filter0_dd)">
<path d="M186.485 225.394C186.206 225.308 185.915 225.223 185.636 225.15C185.842 224.944 186.024 224.725 186.219 224.494L186.485 225.394ZM515.654 375.852C514.392 373.578 512.281 371.888 509.782 371.17L486.477 364.481C485.592 364.225 484.694 364.104 483.784 364.104C482.061 364.104 480.363 364.554 478.846 365.441C477.56 366.196 476.493 367.254 475.68 368.47C475.486 368.762 475.28 369.102 475.061 369.504C475.013 369.613 474.94 369.711 474.891 369.832C473.302 372.909 471.24 378.577 469.638 383.32C467.903 380.328 465.805 377.64 463.378 375.256C467.236 373.225 470.754 370.927 473.848 368.275C483.723 359.859 490.032 348.585 492.737 334.659C498.39 324.795 501.253 312.791 501.253 298.744C501.253 283.103 497.747 269.238 490.82 257.514C484.791 247.31 476.711 239.125 466.763 233.08C471.871 228.519 476.25 223.204 479.817 217.16C483.675 210.629 486.259 203.696 487.593 196.46C492.919 186.925 495.649 176.587 495.649 165.677C495.649 154.403 492.689 143.749 486.853 133.994C481.103 124.374 473.254 116.603 463.56 110.874C453.758 105.109 443.022 102.178 431.618 102.178C420.153 102.178 409.295 105.097 399.348 110.838C389.666 116.42 381.817 124.022 375.945 133.399L375.824 113.854C375.8 111.227 374.732 108.721 372.852 106.885C371.024 105.1 368.574 104.1 366.022 104.1C365.961 104.1 337.343 104.647 337.343 104.647C334.346 104.708 331.726 106.143 329.967 108.308C325.32 113.55 320.71 129.349 320.746 133.824L320.783 140.392L319.667 140.355V114.061C319.667 108.636 315.287 104.233 309.877 104.233H281.379C275.968 104.233 271.589 108.636 271.589 114.061V114.851L243.965 101.631C242.631 100.986 241.187 100.67 239.743 100.67C238.385 100.67 237.014 100.962 235.74 101.534C233.107 102.713 231.13 105 230.341 107.761L227.315 116.151C227.315 116.151 223.827 125.359 223.341 127.05L221.267 134.262L216.256 113.659C215.189 109.257 211.258 106.167 206.745 106.167H180.444C176.028 106.167 172.158 109.123 171.005 113.392L167.043 124.64C167.043 124.64 165.037 130.054 164.442 131.453L158.813 110.655C158.122 108.089 156.411 105.912 154.082 104.635C152.614 103.832 150.988 103.419 149.362 103.419C148.38 103.419 147.409 103.565 146.451 103.857L114.69 113.744C112.058 114.559 110.032 116.396 108.867 118.682C104.305 124.143 99.8532 140.818 101.236 145.293L129.248 236.595C125.827 239.684 122.879 243.211 120.441 247.176C119.688 248.405 119.009 249.669 118.378 250.959C117.893 251.409 117.408 251.944 116.874 252.649C108.734 263.534 106.307 282.945 106.307 292.553C106.307 303.925 109.534 313.229 115.855 320.32L109.656 328.87C108.77 330.098 108.236 331.472 107.981 332.883L102.668 348.147C99.8653 352.002 100.241 357.317 103.553 360.747C106.065 363.362 108.818 365.77 111.779 367.983C111.269 368.36 110.784 368.786 110.347 369.273C110.092 369.54 109.91 369.844 109.692 370.136C108.843 370.647 108.042 371.231 107.375 371.961C105.567 373.955 100.63 393.171 100.824 395.847L102.364 418.043C102.728 423.2 107.011 427.177 112.13 427.177C112.215 427.177 125.402 426.849 125.402 426.849L125.597 480.314C125.597 482.989 126.701 485.543 128.629 487.392C130.461 489.131 132.876 490.104 135.387 490.104C135.532 490.104 157.745 489.095 157.745 489.095C161.713 488.912 165.037 486.37 166.407 482.868C170.447 476.434 174.111 463.846 174.099 459.954L173.978 425.693L179.085 425.572L179.607 479.487C179.667 484.875 184.035 489.204 189.409 489.204H212.314C214.922 489.204 217.421 488.171 219.253 486.322C219.908 485.665 220.454 484.935 220.879 484.157C223.535 486.2 226.386 487.988 229.407 489.508C235.631 492.622 241.939 494.203 248.187 494.203C249.995 494.203 251.826 494.045 253.634 493.729C258.317 492.902 261.738 488.827 261.738 484.06V474.172C264.177 477.31 266.918 480.131 270.024 482.466C277.23 487.903 285.819 490.652 295.549 490.652C305.109 490.652 313.589 487.976 320.734 482.698C324.762 479.718 328.195 475.947 331.107 471.606L331.362 479.815C331.531 485.106 335.862 489.326 341.164 489.326H399.93C404.625 489.326 408.519 486.018 409.49 481.615C410.035 482.393 410.569 483.172 411.224 483.889C415.301 488.316 420.626 490.652 426.619 490.652C432.734 490.652 438.06 488.207 442.051 483.597C445.678 479.389 447.595 474.099 447.595 468.297C447.595 467.495 447.522 466.741 447.45 465.974C447.801 465.646 448.141 465.269 448.481 464.904C448.626 468.164 449.476 471.387 451.065 474.427C453.904 479.839 458.562 483.61 464.543 485.325C466.593 485.908 468.668 486.212 470.706 486.212C474.54 486.212 478.215 485.179 481.624 483.147C486.671 480.131 490.214 475.461 491.864 469.672C492.737 466.631 492.968 463.639 492.64 460.781C495.564 457.996 497.687 454.481 498.851 450.395C500.016 446.345 500.065 442.404 499.118 438.731L499.409 437.697C500.635 436.53 501.605 435.07 502.115 433.331L516.503 383.332C517.219 380.827 516.915 378.139 515.654 375.852Z" fill="url(#paint1_linear)"/>
</g>
<path d="M239.743 110.497L273.032 126.417L237.013 220.602H208.116L192.636 169.52L178.806 218.133L146.62 217.719L117.577 123.121L149.362 113.233L165.242 171.868L180.443 115.982H206.745L221.121 175.151L239.743 110.497ZM338.216 219.094L337.949 179.42L309.876 178.447V218.133H281.379V114.061H309.876V149.903L337.803 150.717L337.536 114.474L366.021 113.915L366.701 219.227L338.216 219.094ZM443.81 188.615C447.91 186.329 451.198 183.166 453.673 179.141C456.135 175.115 457.361 170.627 457.361 165.677C457.361 160.922 456.184 156.592 453.794 152.712C451.428 148.82 448.238 145.78 444.222 143.578C440.194 141.389 435.766 140.282 430.926 140.282C426.097 140.282 421.669 141.426 417.654 143.712C413.626 145.999 410.472 149.088 408.203 152.98C405.91 156.872 404.77 161.201 404.77 165.957C404.77 170.724 405.935 175.091 408.264 179.068C410.593 183.057 413.723 186.207 417.654 188.542C421.572 190.877 425.903 192.045 430.659 192.045C435.317 192.045 439.697 190.902 443.81 188.615ZM404.151 212.842C395.708 207.77 388.962 201.02 383.891 192.592C378.82 184.176 376.297 175.249 376.297 165.823C376.297 156.3 378.82 147.409 383.891 139.115C388.962 130.832 395.732 124.24 404.224 119.351C412.716 114.45 421.839 112.005 431.617 112.005C441.298 112.005 450.288 114.45 458.598 119.351C466.908 124.24 473.52 130.808 478.458 139.042C483.383 147.288 485.858 156.166 485.858 165.677C485.858 175.395 483.359 184.456 478.385 192.872C473.411 201.288 466.726 207.989 458.319 212.988C449.924 217.975 440.934 220.468 431.338 220.468C421.669 220.468 412.595 217.926 404.151 212.842ZM139.827 349.266C130.995 345.739 123.582 340.862 117.577 334.635L133.518 312.657C144.461 320.782 155.343 324.832 166.177 324.832C170.374 324.832 173.747 324.041 176.27 322.46C178.793 320.879 180.055 318.714 180.055 315.966C180.055 313.229 178.478 311.283 175.324 310.128C172.17 308.96 167.074 308.011 160.026 307.282C148.137 305.907 139.014 302.478 132.657 297.005C126.288 291.519 123.109 283.614 123.109 273.276C123.109 265.468 125.002 258.487 128.787 252.321C132.572 246.154 137.861 241.326 144.643 237.848C151.424 234.369 159.128 232.63 167.754 232.63C176.064 232.63 184.289 234.284 192.442 237.617C200.594 240.937 207.715 245.704 213.818 251.919L198.35 273.118C192.89 269.214 188.074 266.453 183.925 264.811C179.764 263.182 174.644 262.355 168.542 262.355C164.017 262.355 160.572 263.072 158.206 264.495C155.84 265.918 154.651 267.949 154.651 270.588C154.651 273.118 155.804 274.967 158.121 276.122C160.438 277.278 164.175 277.971 169.331 278.178C180.164 278.494 189.882 281.133 198.52 286.083C207.133 291.045 211.44 299.68 211.44 312.025C211.44 320.344 209.426 327.739 205.386 334.16C201.334 340.594 195.838 345.605 188.899 349.181C181.948 352.768 174.28 354.569 165.861 354.569C157.345 354.569 148.658 352.793 139.827 349.266ZM270.448 295.728L287.481 297.163L280.226 269.007L270.448 295.728ZM303.107 356.624L296.167 330.208L258.462 328.468L248.526 355.359L213.818 350.774L265.717 233.579L298.533 233.895L337.027 351.406L303.107 356.624ZM346.489 353.778L349.013 235.16L379.621 233.579L378.675 355.359L346.489 353.778ZM450.361 316.051C455.674 311.575 458.331 304.533 458.331 294.937C458.331 288.819 457.154 283.553 454.789 279.126C452.423 274.699 449.208 271.318 445.156 269.007C441.104 266.684 436.664 265.529 431.836 265.529C429.834 265.529 427.674 265.784 425.357 266.307V322.29C427.044 322.618 428.778 322.776 430.574 322.776C438.459 322.776 445.059 320.539 450.361 316.051ZM457.47 239.112C468.036 244.5 476.335 252.296 482.388 262.513C488.442 272.741 491.463 284.818 491.463 298.744C491.463 317.608 485.809 331.874 474.503 341.506C463.196 351.163 445.763 356.052 422.203 356.15C413.687 356.15 403.69 355.359 392.226 353.778L393.815 237.69L393.5 237.045C398.546 234.953 403.12 233.421 407.22 232.46C411.321 231.523 416.064 231.049 421.414 231.049C434.881 231.049 446.891 233.737 457.47 239.112ZM188.863 396.407L164.078 396.966L164.296 459.991L142.386 460.988L142.168 397.513L119.142 398.073L117.577 375.877L187.091 374.223L188.863 396.407ZM218.974 417.605C220.308 417.97 221.594 418.153 222.843 418.153C226.459 418.153 229.649 417.082 232.379 414.942C235.109 412.801 236.467 410.016 236.467 406.611C236.467 403.801 235.485 401.308 233.532 399.131C231.578 396.954 228.897 395.859 225.512 395.859C223.001 395.859 220.793 396.334 218.864 397.294L218.974 417.605ZM250.795 439.242C253.427 440.58 256.133 441.346 258.935 441.565V464.77C257.686 464.989 256.424 465.099 255.174 465.099C250.455 465.099 245.663 463.882 240.774 461.438C235.909 458.993 231.663 455.734 228.06 451.672C224.433 447.609 222.043 443.353 220.854 438.901L219.204 438.682L219.313 460.1H196.396L195.62 379.866C197.61 378.248 201.249 376.874 206.526 375.767C211.804 374.66 216.62 374.101 220.975 374.101C229.383 374.101 236.467 375.512 242.218 378.321C247.98 381.131 252.287 384.925 255.114 389.693C257.965 394.461 259.384 399.848 259.384 405.832C259.384 411.609 258.122 416.924 255.611 421.765C253.1 426.618 249.57 430.509 244.996 433.477C246.246 435.982 248.187 437.904 250.795 439.242ZM282.907 455.333C277.4 451.185 273.214 445.42 270.339 438.013C267.464 430.619 266.02 422.081 266.02 412.388C266.02 397.963 267.937 385.193 271.77 374.101L295.912 381.313C294.36 386.275 293.146 391.578 292.261 397.246C291.375 402.901 290.926 407.803 290.926 411.95C290.926 419.928 291.885 426.374 293.802 431.251C295.718 436.141 298.594 438.573 302.439 438.573C305.982 438.573 308.784 436.141 310.859 431.251C312.909 426.374 313.952 419.928 313.952 411.95C313.952 407.803 313.516 402.901 312.618 397.246C311.744 391.578 310.519 386.275 308.978 381.313L333.108 374.101C336.942 385.193 338.859 397.963 338.859 412.388C338.859 422.3 337.403 430.959 334.491 438.354C331.567 445.749 327.382 451.465 321.923 455.503C316.464 459.528 310.009 461.547 302.548 461.547C294.954 461.547 288.403 459.48 282.907 455.333ZM371.396 437.357L406.929 436.688V460.222H348.151L345.495 375.877L404.272 373.991L405.825 396.747L369.297 397.404L369.734 406.951L399.954 405.954L400.948 426.265L370.959 427.7L371.396 437.357Z" fill="url(#paint2_linear)"/>
<path d="M425.418 457.948C423.21 455.539 422.094 452.706 422.094 449.458C422.094 446.126 423.295 443.316 425.697 441.018C428.087 438.731 430.877 437.576 434.044 437.576C437.004 437.576 439.527 438.622 441.638 440.689C443.737 442.757 444.792 445.542 444.792 449.008C444.792 452.487 443.737 455.442 441.638 457.887C439.527 460.331 436.858 461.547 433.607 461.547C430.368 461.547 427.626 460.343 425.418 457.948ZM442.694 433.574L424.751 432.139V410.174C425.273 410.466 426.413 410.782 428.184 411.111C429.968 411.439 431.508 411.609 432.831 411.609C435.864 411.609 438.46 410.819 440.631 409.226C442.803 407.632 443.895 405.54 443.895 402.95C443.895 400.517 443.106 398.462 441.529 396.796C439.94 395.13 437.659 394.303 434.711 394.303C431.836 394.303 429.616 395.166 428.075 396.905C426.522 398.644 425.491 400.773 424.969 403.29L411.358 397.732C411.734 393.524 413.165 389.657 415.676 386.142C418.176 382.627 421.427 379.83 425.418 377.774C429.397 375.694 433.68 374.661 438.253 374.661C443.494 374.661 448.177 376.035 452.314 378.771C456.439 381.508 459.654 385.096 461.947 389.523C464.227 393.962 465.38 398.62 465.38 403.509C465.38 408.836 464.045 413.349 461.388 417.046C458.744 420.755 455.602 423.468 451.986 425.207C448.359 426.946 445.193 427.773 442.463 427.7L442.694 433.574ZM466.739 450.577C465.149 447.549 464.81 444.423 465.72 441.224C466.338 439.084 467.479 437.284 469.165 435.812C470.863 434.328 472.804 433.355 475.025 432.869C477.22 432.395 479.392 432.443 481.527 433.064C484.645 433.951 486.986 435.751 488.576 438.427C490.141 441.115 490.432 444.192 489.437 447.683C488.466 451.088 486.525 453.678 483.614 455.418C480.69 457.157 477.56 457.558 474.224 456.597C470.827 455.624 468.328 453.606 466.739 450.577ZM471.215 426.411L483.784 373.919L507.088 380.608L492.7 430.619L471.215 426.411Z" fill="#F2AB3C"/>
<defs>
<filter id="filter0_dd" x="0.793274" y="0.669922" width="616.089" height="593.533" filterUnits="userSpaceOnUse" color-interpolation-filters="sRGB">
<feFlood flood-opacity="0" result="BackgroundImageFix"/>
<feColorMatrix in="SourceAlpha" type="matrix" values="0 0 0 0 0 0 0 0 0 0 0 0 0 0 0 0 0 0 127 0" result="hardAlpha"/>
<feOffset/>
<feGaussianBlur stdDeviation="50"/>
<feComposite in2="hardAlpha" operator="out"/>
<feColorMatrix type="matrix" values="0 0 0 0 0.45098 0 0 0 0 0.188235 0 0 0 0 0.882353 0 0 0 0.2 0"/>
<feBlend mode="normal" in2="BackgroundImageFix" result="effect1_dropShadow"/>
<feColorMatrix in="SourceAlpha" type="matrix" values="0 0 0 0 0 0 0 0 0 0 0 0 0 0 0 0 0 0 127 0" result="hardAlpha"/>
<feOffset dy="30"/>
<feGaussianBlur stdDeviation="16"/>
<feComposite in2="hardAlpha" operator="out"/>
<feColorMatrix type="matrix" values="0 0 0 0 0.205839 0 0 0 0 0.0656934 0 0 0 0 0.534307 0 0 0 1 0"/>
<feBlend mode="normal" in2="effect1_dropShadow" result="effect2_dropShadow"/>
<feBlend mode="normal" in="SourceGraphic" in2="effect2_dropShadow" result="shape"/>
</filter>
<linearGradient id="paint0_linear" x1="309" y1="560" x2="309" y2="33.9999" gradientUnits="userSpaceOnUse">
<stop stop-color="#2A0871"/>
<stop offset="1" stop-color="#5D5FEF"/>
</linearGradient>
<linearGradient id="paint1_linear" x1="308.838" y1="494.203" x2="308.838" y2="100.67" gradientUnits="userSpaceOnUse">
<stop stop-color="#651AE0"/>
<stop offset="1" stop-color="#2C0B75"/>
</linearGradient>
<linearGradient id="paint2_linear" x1="304.52" y1="465.099" x2="304.52" y2="110.497" gradientUnits="userSpaceOnUse">
<stop stop-color="#ECE5FA"/>
<stop offset="1" stop-color="#F6F3FC"/>
</linearGradient>
</defs>
</svg>
