<svg width="404" height="396" viewBox="0 0 404 396" fill="none" xmlns="http://www.w3.org/2000/svg">
<g opacity="0.4" filter="url(#filter0_d)">
<path d="M175.461 336.102C167.103 333.461 160.779 328.353 156.507 320.805C152.138 313.085 151.252 304.975 153.875 296.458C156.489 287.946 161.521 281.6 168.967 277.386C175.892 273.468 183.188 272.498 190.849 274.518C198.521 276.532 204.619 281.58 209.181 289.641C213.743 297.702 215.173 305.956 213.449 314.453C211.721 322.915 207.04 329.25 199.4 333.573C191.786 337.882 183.805 338.751 175.461 336.102ZM183.99 256.624L139.99 277.087L111.135 226.1C112.763 226.119 115.835 225.32 120.446 223.726C125.037 222.143 128.892 220.488 132.005 218.726C139.118 214.701 144.16 209.403 147.169 202.811C150.199 196.245 149.995 189.93 146.594 183.919C143.402 178.279 138.839 174.543 132.951 172.798C127.022 171.039 120.599 172.117 113.677 176.034C106.926 179.855 102.867 184.822 101.535 190.916C100.14 197.009 100.523 203.335 102.623 209.857L63.3608 215.04C58.7145 204.77 56.995 193.897 58.2676 182.383C59.5307 170.913 63.5081 160.124 70.1628 150.04C76.7625 139.912 85.475 131.823 96.1966 125.755C108.499 118.792 121.294 115.763 134.588 116.627C147.873 117.495 160.117 121.547 171.32 128.783C182.505 136.067 191.324 145.329 197.756 156.695C204.736 169.029 207.557 181.309 206.171 193.414C204.802 205.508 201.006 216.006 194.796 224.823C188.586 233.678 182.242 239.825 175.725 243.25L183.99 256.624ZM262.754 264.136C255.049 259.207 250.143 252.393 248.091 243.777C246.712 237.976 247.031 232.268 249.064 226.604C251.095 220.942 254.377 216.075 258.947 212.023C263.485 207.987 268.653 205.251 274.448 203.814C282.945 201.751 290.794 202.8 298.053 206.928C305.269 211.08 309.999 217.843 312.23 227.261C314.43 236.471 313.252 245.035 308.716 252.942C304.146 260.869 297.33 265.93 288.233 268.144C278.973 270.414 270.472 269.057 262.754 264.136ZM241.541 202.092L202.084 63.5734L265.583 48.1335L297.466 183.304L241.541 202.092Z" fill="#FBFBFE" fill-opacity="0.1" shape-rendering="crispEdges"/>
</g>
<defs>
<filter id="filter0_d" x="0.0872612" y="0.609344" width="403.793" height="394.522" filterUnits="userSpaceOnUse" color-interpolation-filters="sRGB">
<feFlood flood-opacity="0" result="BackgroundImageFix"/>
<feColorMatrix in="SourceAlpha" type="matrix" values="0 0 0 0 0 0 0 0 0 0 0 0 0 0 0 0 0 0 127 0" result="hardAlpha"/>
<feOffset/>
<feGaussianBlur stdDeviation="16"/>
<feComposite in2="hardAlpha" operator="out"/>
<feColorMatrix type="matrix" values="0 0 0 0 0.482353 0 0 0 0 0.380392 0 0 0 0 1 0 0 0 0.3 0"/>
<feBlend mode="normal" in2="BackgroundImageFix" result="effect1_dropShadow"/>
<feBlend mode="normal" in="SourceGraphic" in2="effect1_dropShadow" result="shape"/>
</filter>
</defs>
</svg>
