<svg width="80" height="80" viewBox="0 0 80 80" fill="none" xmlns="http://www.w3.org/2000/svg">
<g filter="url(#filter0_d)">
<rect x="16" y="16" width="48" height="48" rx="24" fill="#FCF8F8"/>
<path d="M54.1419 38.0819C54.69 39.01 55 40 55 41.1969C55 43.9478 52.6739 46.5456 49.6362 46.5456H47.3563C47.6638 47.3462 47.9094 48.3038 47.9094 49.4544C47.9094 54.004 45.5537 56 41.955 56C38.1046 56 38.3242 50.0667 37.47 49.2125C36.0483 47.7908 34.3691 45.0596 33.1725 44H27C25.8954 44 25 43.1046 25 42V27C25 25.8954 25.8954 25 27 25H31C31.9308 25 32.713 25.6359 32.9361 26.4969C35.7179 26.4343 37.6274 24.0006 44.0487 24.0006C44.5 24.0006 45 24 45.4375 24C50.2573 24 52.4366 26.4639 52.4963 29.9581C53.3287 31.1097 53.7649 32.6532 53.58 34.145C54.1959 35.2983 54.434 36.6664 54.1419 38.0819ZM50.2825 34.7175C51.0675 33.3969 50.3612 31.6294 49.4112 31.1194C49.8925 28.0706 48.3107 27.0006 46.0912 27.0006H43.7275C39.2501 27.0006 36.3507 29.3644 33 29.3644V41H33.6825C35.455 41 37.9313 45.4306 39.5913 47.0913C41.3638 48.8638 40.7731 51.8181 41.955 53C44.9094 53 44.9094 50.9387 44.9094 49.4544C44.9094 47.0063 43.1369 45.9094 43.1369 43.5456H49.6362C50.9556 43.5456 51.9944 42.3638 52 41.1819C52.0056 40.0006 51.1988 38.8188 50.6081 38.8188C51.4512 37.9091 51.6313 35.9915 50.2825 34.7175ZM30.5 29C30.5 28.1716 29.8284 27.5 29 27.5C28.1716 27.5 27.5 28.1716 27.5 29C27.5 29.8284 28.1716 30.5 29 30.5C29.8284 30.5 30.5 29.8284 30.5 29Z" fill="#8F3D3D"/>
<rect x="16.5" y="16.5" width="47" height="47" rx="23.5" stroke="#F0DBDB"/>
</g>
<defs>
<filter id="filter0_d" x="0" y="0" width="80" height="80" filterUnits="userSpaceOnUse" color-interpolation-filters="sRGB">
<feFlood flood-opacity="0" result="BackgroundImageFix"/>
<feColorMatrix in="SourceAlpha" type="matrix" values="0 0 0 0 0 0 0 0 0 0 0 0 0 0 0 0 0 0 127 0" result="hardAlpha"/>
<feOffset/>
<feGaussianBlur stdDeviation="8"/>
<feColorMatrix type="matrix" values="0 0 0 0 0.560784 0 0 0 0 0.239216 0 0 0 0 0.239216 0 0 0 0.4 0"/>
<feBlend mode="normal" in2="BackgroundImageFix" result="effect1_dropShadow"/>
<feBlend mode="normal" in="SourceGraphic" in2="effect1_dropShadow" result="shape"/>
</filter>
</defs>
</svg>
