<svg width="100" height="100" viewBox="0 0 100 100" fill="none" xmlns="http://www.w3.org/2000/svg">
<path d="M77.0202 0.0658264V-7.62939e-06H24.2424V0.00760651C10.8081 0.278488 0 11.2783 0 24.8098V75.1889C0 88.8925 11.0783 100 24.7475 100H76.7677V99.9524C89.7298 99.1683 100 88.3811 100 75.1889V24.8098C100 11.7062 89.8611 0.974678 77.0202 0.0658264Z" fill="url(#paint0_linear)"/>
<path d="M24.5303 35.0046C24.4722 34.9869 24.4116 34.9692 24.3535 34.954C24.3964 34.9109 24.4343 34.8654 24.4747 34.8173L24.5303 35.0046ZM93.0479 66.3232C92.7853 65.8498 92.3459 65.4979 91.8257 65.3485L86.9747 63.9562C86.7904 63.903 86.6035 63.8777 86.4141 63.8777C86.0555 63.8777 85.702 63.9713 85.3863 64.1561C85.1186 64.3131 84.8964 64.5334 84.7272 64.7865C84.6868 64.8473 84.6439 64.9182 84.5984 65.0017C84.5883 65.0245 84.5732 65.0447 84.5631 65.0701C84.2323 65.7106 83.803 66.8903 83.4696 67.8776C83.1085 67.2548 82.6717 66.6953 82.1666 66.1992C82.9697 65.7764 83.702 65.2979 84.3459 64.746C86.4015 62.9941 87.7146 60.6473 88.2777 57.7486C89.4545 55.6955 90.0505 53.1968 90.0505 50.2728C90.0505 47.0171 89.3207 44.1311 87.8787 41.6906C86.6237 39.5666 84.9419 37.8628 82.8712 36.6046C83.9343 35.6552 84.8459 34.5489 85.5883 33.2907C86.3914 31.9312 86.9292 30.4882 87.207 28.9819C88.3156 26.9971 88.8838 24.8452 88.8838 22.5744C88.8838 20.2276 88.2676 18.0099 87.053 15.9795C85.856 13.977 84.2222 12.3593 82.2045 11.167C80.1641 9.96697 77.9293 9.35685 75.5555 9.35685C73.1692 9.35685 70.9091 9.96444 68.8383 11.1594C66.8232 12.3214 65.1894 13.9036 63.9671 15.8555L63.9419 11.7872C63.9368 11.2404 63.7146 10.7189 63.3232 10.3366C62.9427 9.965 62.4326 9.75698 61.9015 9.75684C61.8889 9.75684 55.9318 9.87077 55.9318 9.87077C55.308 9.88342 54.7626 10.1821 54.3964 10.6328C53.4293 11.7239 52.4697 15.0125 52.4772 15.9441L52.4848 17.3112L52.2525 17.3036V11.8302C52.2525 10.7011 51.3409 9.78468 50.2146 9.78468H44.2828C43.1565 9.78468 42.2449 10.7011 42.2449 11.8302V11.9948L36.4949 9.24293C36.2172 9.10875 35.9166 9.04292 35.6161 9.04292C35.3333 9.04292 35.0479 9.10369 34.7828 9.22268C34.2348 9.46825 33.8232 9.94417 33.659 10.5188L32.7626 13.6302C32.505 13.8758 32.303 14.1821 32.202 14.534L31.7702 16.0352L30.7272 11.7467C30.505 10.8302 29.6868 10.1872 28.7474 10.1872H23.2727C22.3535 10.1872 21.5479 10.8024 21.3081 11.691L20.4873 14.7036C20.255 14.9036 20.0656 15.1593 19.9419 15.4504L18.7702 11.1214C18.6262 10.5872 18.2702 10.1341 17.7853 9.86824C17.4798 9.70116 17.1414 9.61508 16.803 9.61508C16.5984 9.61508 16.3964 9.64545 16.1969 9.70621L9.58583 11.7644C9.03785 11.934 8.61613 12.3163 8.3737 12.7923C7.42421 13.9289 6.49746 17.3998 6.78534 18.3314L12.6161 37.3362C11.904 37.9793 11.2904 38.7134 10.7828 39.5387C10.6262 39.7944 10.4848 40.0577 10.3535 40.3261C10.2525 40.4197 10.1515 40.5311 10.0404 40.678C8.34593 42.9438 7.84089 46.9842 7.84089 48.9842C7.84089 51.3512 8.51261 53.2879 9.82826 54.7639L8.53785 56.5436C8.3535 56.7993 8.2424 57.0853 8.18937 57.379L7.08331 60.5562C6.49998 61.3587 6.57826 62.465 7.26765 63.1789C7.79038 63.7232 8.3636 64.2245 8.97977 64.6853C8.8737 64.7637 8.7727 64.8523 8.68179 64.9536C8.62876 65.0093 8.59087 65.0726 8.54542 65.1334C8.36865 65.2397 8.20199 65.3612 8.0631 65.5131C7.68684 65.9283 6.65906 69.9282 6.69947 70.4852L7.02018 75.1054C7.09594 76.1788 7.98735 77.0066 9.05301 77.0066C9.07068 77.0066 11.8156 76.9383 11.8156 76.9383L11.856 88.0672C11.856 88.6242 12.0858 89.1558 12.4874 89.5406C12.8687 89.9026 13.3712 90.1052 13.8939 90.1052C13.9242 90.1052 18.548 89.8951 18.548 89.8951C19.3737 89.8571 20.0656 89.328 20.351 88.5989C21.1919 87.2596 21.9545 84.6394 21.952 83.8293L21.9267 76.6978L22.9899 76.6724L23.0985 87.8951C23.1111 89.0166 24.0202 89.9178 25.1389 89.9178H29.9065C30.4495 89.9178 30.9697 89.7027 31.351 89.3178C31.4873 89.1811 31.601 89.0292 31.6894 88.8672C32.2424 89.2925 32.8358 89.6647 33.4646 89.9811C34.7601 90.6292 36.0732 90.9583 37.3737 90.9583C37.75 90.9583 38.1313 90.9254 38.5075 90.8596C39.4823 90.6874 40.1944 89.8393 40.1944 88.847V86.7888C40.702 87.4419 41.2727 88.0293 41.9192 88.5153C43.4192 89.647 45.207 90.2191 47.2323 90.2191C49.2222 90.2191 50.9873 89.6622 52.4747 88.5634C53.3131 87.9432 54.0277 87.1584 54.6338 86.2546L54.6868 87.9634C54.7222 89.0647 55.6237 89.9432 56.7272 89.9432H68.9596C69.9368 89.9432 70.7474 89.2546 70.9495 88.3381C71.0631 88.5001 71.1742 88.6622 71.3106 88.8115C72.159 89.733 73.2676 90.2191 74.5151 90.2191C75.7878 90.2191 76.8964 89.7102 77.7272 88.7508C78.4823 87.8748 78.8813 86.7736 78.8813 85.566C78.8813 85.3989 78.8661 85.242 78.851 85.0825C78.9242 85.0141 78.9949 84.9356 79.0656 84.8597C79.0959 85.5381 79.2727 86.209 79.6035 86.8419C80.1944 87.9685 81.1641 88.7533 82.409 89.1103C82.8358 89.2318 83.2676 89.2951 83.6919 89.2951C84.4899 89.2951 85.255 89.0799 85.9646 88.6571C87.0151 88.0292 87.7525 87.0571 88.0959 85.8521C88.2777 85.2192 88.3257 84.5964 88.2575 84.0015C88.8661 83.4217 89.308 82.6901 89.5505 81.8395C89.7929 80.9964 89.803 80.1762 89.606 79.4117L89.6666 79.1965C89.9217 78.9534 90.1237 78.6496 90.2297 78.2876L93.2247 67.8802C93.3737 67.3586 93.3106 66.7992 93.0479 66.3232Z" fill="#182E5E"/>
<path d="M35.6161 11.0885L42.5454 14.4024L35.0479 34.0072H29.0328L25.8106 23.3744L22.9318 33.4932L16.2323 33.4072L10.1868 13.7163L16.803 11.6581L20.1086 23.863L23.2727 12.2302H28.7474L31.7399 24.5465L35.6161 11.0885ZM56.1136 33.6932L56.058 25.4351L50.2146 25.2326V33.4932H44.2828V11.8302H50.2146V19.2909L56.0278 19.4605L55.9722 11.9163L61.9015 11.7999L62.0429 33.7211L56.1136 33.6932ZM78.0934 27.349C78.947 26.8731 79.6313 26.2149 80.1464 25.3769C80.6591 24.5389 80.9141 23.6048 80.9141 22.5744C80.9141 21.5845 80.6692 20.6833 80.1717 19.8757C79.6793 19.0656 79.0151 18.4327 78.1793 17.9744C77.3409 17.5188 76.4192 17.2884 75.4116 17.2884C74.4065 17.2884 73.4848 17.5264 72.649 18.0023C71.8106 18.4782 71.154 19.1213 70.6818 19.9314C70.2045 20.7415 69.9672 21.6428 69.9672 22.6326C69.9672 23.625 70.2096 24.5339 70.6944 25.3617C71.1793 26.1921 71.8308 26.8478 72.649 27.3338C73.4646 27.8199 74.3661 28.0629 75.356 28.0629C76.3257 28.0629 77.2374 27.825 78.0934 27.349ZM69.8384 32.392C68.0808 31.3363 66.6767 29.9313 65.6212 28.1768C64.5656 26.425 64.0404 24.5668 64.0404 22.6048C64.0404 20.6225 64.5656 18.7719 65.6212 17.0454C66.6767 15.3213 68.0858 13.9492 69.8535 12.9315C71.6212 11.9113 73.5202 11.4024 75.5555 11.4024C77.5707 11.4024 79.4419 11.9113 81.1717 12.9315C82.9015 13.9492 84.2777 15.3163 85.3055 17.0302C86.3308 18.7466 86.8459 20.5947 86.8459 22.5744C86.8459 24.5971 86.3257 26.4832 85.2904 28.2351C84.255 29.987 82.8636 31.3819 81.1136 32.4224C79.3661 33.4603 77.4949 33.9793 75.4975 33.9793C73.4848 33.9793 71.5959 33.4502 69.8384 32.392ZM14.8182 60.7891C12.9798 60.0549 11.4368 59.0397 10.1868 57.7436L13.505 53.1689C15.7828 54.86 18.048 55.7031 20.303 55.7031C21.1768 55.7031 21.8788 55.5385 22.404 55.2094C22.9293 54.8803 23.1919 54.4297 23.1919 53.8575C23.1919 53.2879 22.8636 52.8829 22.207 52.6424C21.5505 52.3993 20.4899 52.2019 19.0227 52.05C16.548 51.7639 14.649 51.05 13.3257 49.9107C12 48.769 11.3384 47.1234 11.3384 44.9716C11.3384 43.3463 11.7323 41.8931 12.5202 40.6096C13.3081 39.3261 14.4091 38.321 15.8207 37.597C17.2323 36.873 18.8358 36.5109 20.6313 36.5109C22.3611 36.5109 24.0732 36.8552 25.7702 37.5489C27.4672 38.24 28.9495 39.2324 30.2197 40.5261L27 44.9387C25.8636 44.126 24.8611 43.5513 23.9975 43.2096C23.1313 42.8703 22.0656 42.6982 20.7954 42.6982C19.8535 42.6982 19.1363 42.8475 18.6439 43.1437C18.1515 43.4399 17.904 43.8627 17.904 44.4121C17.904 44.9387 18.1439 45.3235 18.6262 45.564C19.1086 45.8045 19.8863 45.9488 20.9596 45.9918C23.2146 46.0576 25.2373 46.607 27.0353 47.6374C28.8283 48.6703 29.7247 50.4677 29.7247 53.0373C29.7247 54.7689 29.3055 56.3081 28.4646 57.6448C27.6212 58.984 26.4772 60.0271 25.0328 60.7714C23.5858 61.5182 21.9899 61.8929 20.2373 61.8929C18.4646 61.8929 16.6565 61.5233 14.8182 60.7891ZM42.0076 49.6449L45.553 49.9437L44.0429 44.083L42.0076 49.6449ZM48.8055 62.3207L47.3611 56.822L39.5126 56.46L37.4444 62.0574L30.2197 61.103L41.0227 36.7084L47.8535 36.7742L55.8661 61.2347L48.8055 62.3207ZM57.8358 61.7283L58.3611 37.0375L64.7323 36.7084L64.5353 62.0574L57.8358 61.7283ZM79.4571 53.8753C80.5631 52.9436 81.1161 51.4778 81.1161 49.4804C81.1161 48.207 80.8712 47.1108 80.3788 46.1893C79.8863 45.2678 79.2171 44.564 78.3737 44.083C77.5303 43.5994 76.606 43.3589 75.601 43.3589C75.1843 43.3589 74.7348 43.4121 74.2525 43.521V55.174C74.6035 55.2423 74.9646 55.2752 75.3383 55.2752C76.9798 55.2752 78.3535 54.8094 79.4571 53.8753ZM80.9368 37.8603C83.1363 38.9818 84.8636 40.6045 86.1237 42.7311C87.3838 44.8602 88.0126 47.3741 88.0126 50.2728C88.0126 54.1993 86.8358 57.1689 84.4823 59.1739C82.1288 61.184 78.5 62.2017 73.5959 62.222C71.8232 62.222 69.7424 62.0574 67.356 61.7283L67.6868 37.5641L67.6212 37.4299C68.6717 36.9945 69.6237 36.6755 70.4772 36.4755C71.3308 36.2806 72.3181 36.1818 73.4318 36.1818C76.2348 36.1818 78.7348 36.7413 80.9368 37.8603ZM25.0252 70.6016L19.8661 70.7181L19.9116 83.8369L15.351 84.0445L15.3055 70.832L10.5126 70.9484L10.1868 66.3283L24.6565 65.984L25.0252 70.6016ZM31.2929 75.0142C31.5707 75.0902 31.8384 75.1282 32.0985 75.1282C32.851 75.1282 33.5151 74.9054 34.0833 74.4598C34.6515 74.0142 34.9343 73.4345 34.9343 72.7256C34.9343 72.1408 34.7298 71.6219 34.3232 71.1687C33.9167 70.7155 33.3586 70.4877 32.654 70.4877C32.1313 70.4877 31.6717 70.5864 31.2702 70.7864L31.2929 75.0142ZM37.9166 79.518C38.4646 79.7964 39.0278 79.9559 39.6111 80.0015V84.8318C39.351 84.8774 39.0884 84.9002 38.8283 84.9002C37.8459 84.9002 36.8485 84.647 35.8308 84.1381C34.8181 83.6293 33.9343 82.9508 33.1843 82.1053C32.4293 81.2597 31.9318 80.3736 31.6843 79.4471L31.3409 79.4015L31.3636 83.8597H26.5934L26.4318 67.1586C26.8459 66.8219 27.6035 66.5359 28.702 66.3055C29.8005 66.0751 30.803 65.9586 31.7096 65.9586C33.4596 65.9586 34.9343 66.2523 36.1313 66.8371C37.3308 67.4219 38.2272 68.2118 38.8156 69.2042C39.4091 70.1966 39.7045 71.3181 39.7045 72.5636C39.7045 73.7661 39.4419 74.8725 38.9192 75.88C38.3965 76.8902 37.6616 77.7003 36.7096 78.318C36.9697 78.8395 37.3737 79.2395 37.9166 79.518ZM44.601 82.8673C43.4545 82.004 42.5833 80.804 41.9848 79.2623C41.3863 77.723 41.0858 75.9459 41.0858 73.9282C41.0858 70.9257 41.4848 68.2675 42.2828 65.9586L47.308 67.4599C46.9848 68.4928 46.7323 69.5966 46.548 70.7763C46.3636 71.9535 46.2702 72.9737 46.2702 73.837C46.2702 75.4978 46.4697 76.8395 46.8687 77.8547C47.2677 78.8724 47.8661 79.3787 48.6667 79.3787C49.404 79.3787 49.9873 78.8724 50.4192 77.8547C50.8459 76.8395 51.0631 75.4978 51.0631 73.837C51.0631 72.9737 50.9722 71.9535 50.7853 70.7763C50.6035 69.5966 50.3485 68.4928 50.0277 67.4599L55.0505 65.9586C55.8485 68.2675 56.2474 70.9257 56.2474 73.9282C56.2474 75.9914 55.9444 77.7939 55.3384 79.3332C54.7298 80.8724 53.8586 82.0622 52.7222 82.9027C51.5858 83.7407 50.2424 84.1609 48.6894 84.1609C47.1086 84.1609 45.7449 83.7306 44.601 82.8673ZM63.0202 79.1256L70.4166 78.9863V83.885H58.1818L57.6288 66.3283L69.8636 65.9359L70.1868 70.6725L62.5833 70.8092L62.6742 72.7965L68.9646 72.5889L69.1717 76.8167L62.9293 77.1155L63.0202 79.1256Z" fill="#F2E82F"/>
<path d="M74.2651 83.4116C73.8055 82.9104 73.5732 82.3205 73.5732 81.6445C73.5732 80.9509 73.8232 80.3661 74.3232 79.8876C74.8207 79.4117 75.4015 79.1712 76.0606 79.1712C76.6768 79.1712 77.202 79.3889 77.6414 79.8192C78.0783 80.2496 78.298 80.8294 78.298 81.5509C78.298 82.2749 78.0783 82.8901 77.6414 83.399C77.202 83.9078 76.6464 84.161 75.9697 84.161C75.2954 84.161 74.7247 83.9103 74.2651 83.4116ZM77.8611 78.3382L74.1262 78.0395V73.4674C74.2348 73.5282 74.4722 73.594 74.8409 73.6624C75.2121 73.7307 75.5328 73.7662 75.8081 73.7662C76.4394 73.7662 76.9798 73.6016 77.4318 73.27C77.8838 72.9383 78.1111 72.5029 78.1111 71.9637C78.1111 71.4573 77.947 71.0295 77.6187 70.6826C77.2879 70.3358 76.8131 70.1637 76.1995 70.1637C75.601 70.1637 75.1389 70.3434 74.8182 70.7054C74.4949 71.0675 74.2803 71.5105 74.1717 72.0345L71.3384 70.8776C71.4167 70.0016 71.7146 69.1966 72.2374 68.465C72.7576 67.7333 73.4343 67.1511 74.2651 66.7232C75.0934 66.2903 75.9848 66.0751 76.9369 66.0751C78.0278 66.0751 79.0025 66.3612 79.8636 66.9308C80.7222 67.5004 81.3914 68.2472 81.8687 69.1687C82.3434 70.0928 82.5833 71.0624 82.5833 72.0801C82.5833 73.1889 82.3055 74.1282 81.7525 74.8978C81.202 75.6699 80.548 76.2345 79.7954 76.5965C79.0404 76.9585 78.3813 77.1307 77.8131 77.1155L77.8611 78.3382ZM82.8662 81.8774C82.5353 81.2471 82.4646 80.5965 82.654 79.9306C82.7828 79.4851 83.0202 79.1104 83.3712 78.8041C83.7247 78.4952 84.1288 78.2927 84.5909 78.1914C85.048 78.0927 85.5 78.1028 85.9444 78.2319C86.5934 78.4167 87.0808 78.7914 87.4116 79.3484C87.7374 79.9079 87.798 80.5483 87.5909 81.2749C87.3889 81.9838 86.9848 82.523 86.3788 82.885C85.7702 83.247 85.1187 83.3306 84.4242 83.1306C83.7172 82.9281 83.197 82.5078 82.8662 81.8774ZM83.798 76.8471L86.4141 65.9207L91.2651 67.3131L88.2702 77.7231L83.798 76.8471Z" fill="#2FA0BB"/>
<path d="M76.6818 83.4648C76.6288 83.4648 76.5757 83.4344 76.5505 83.3812C76.5151 83.3078 76.5454 83.2217 76.6187 83.1863C76.8864 83.0521 77.1035 82.8597 77.2652 82.6116C77.4242 82.366 77.5101 82.0951 77.5202 81.8015C77.5328 81.5078 77.4722 81.2218 77.3384 80.9559C77.2096 80.6901 77.0151 80.4749 76.7651 80.3104C76.5151 80.1458 76.2348 80.0547 75.9369 80.0369C75.856 80.0344 75.7929 79.9635 75.798 79.885C75.8005 79.804 75.8788 79.7357 75.952 79.7458C76.303 79.7635 76.6313 79.8724 76.9268 80.0648C77.2197 80.2597 77.447 80.5129 77.601 80.8243C77.755 81.1357 77.8283 81.4698 77.8131 81.8141C77.8005 82.1584 77.6995 82.4799 77.5101 82.7711C77.3207 83.0647 77.0631 83.2926 76.7475 83.4496C76.7247 83.4597 76.7045 83.4648 76.6818 83.4648ZM86.3131 82.5762C86.2601 82.5762 86.2071 82.5458 86.1818 82.4952C86.1465 82.4217 86.1768 82.3357 86.2475 82.2977C86.5151 82.166 86.7348 81.9736 86.8965 81.723C87.0555 81.48 87.1414 81.2066 87.1515 80.9154C87.1616 80.6192 87.101 80.3331 86.9672 80.0673C86.8384 79.804 86.6465 79.5863 86.3965 79.4218C86.1465 79.2572 85.8661 79.1661 85.5656 79.1484C85.4848 79.1458 85.4217 79.0749 85.4268 78.9939C85.4318 78.9129 85.5126 78.8522 85.5808 78.8572C85.9343 78.8775 86.2626 78.9838 86.5555 79.1762C86.851 79.3711 87.0783 79.6268 87.2298 79.9357C87.3838 80.2471 87.4571 80.5813 87.4444 80.9256C87.4318 81.2724 87.3283 81.5939 87.1414 81.885C86.9495 82.1787 86.6944 82.4065 86.3763 82.561C86.3561 82.5711 86.3333 82.5762 86.3131 82.5762Z" fill="#F2E82F"/>
<path d="M80.3813 31.7338C80.3131 31.7338 80.25 31.6958 80.2171 31.6325C80.1717 31.5414 80.2095 31.4325 80.3005 31.387C81.9318 30.5819 83.2575 29.4047 84.2449 27.8908C85.2096 26.4073 85.7323 24.7491 85.8005 22.9617C85.8661 21.1719 85.4949 19.4453 84.6944 17.8327C83.8964 16.2201 82.7247 14.9036 81.2146 13.9138C79.6894 12.9188 77.9924 12.3593 76.1692 12.2581C76.0707 12.253 75.9924 12.1644 75.9974 12.0657C76.005 11.9644 76.0808 11.8885 76.1894 11.8935C78.0782 11.9999 79.8333 12.5771 81.4141 13.61C82.9798 14.6327 84.1919 15.9973 85.0202 17.6681C85.8484 19.339 86.2323 21.1238 86.1641 22.9744C86.0934 24.8301 85.5505 26.5516 84.5479 28.0908C83.5277 29.6604 82.1515 30.8806 80.4596 31.7135C80.4343 31.7262 80.4065 31.7338 80.3813 31.7338ZM19.7247 24.9693C19.6464 24.9693 19.5732 24.9161 19.5505 24.8377L16.0328 12.1847C16.005 12.0885 16.0606 11.9872 16.159 11.9594C16.2575 11.9366 16.356 11.9897 16.3838 12.0885L19.9015 24.7389C19.9293 24.8351 19.8712 24.9364 19.7752 24.9643C19.7575 24.9668 19.7424 24.9693 19.7247 24.9693ZM31.1313 25.8199C31.0479 25.8199 30.9747 25.7642 30.9545 25.6782L27.9217 12.6657C27.899 12.5669 27.957 12.4682 28.058 12.4454C28.1515 12.4226 28.2525 12.4859 28.2752 12.5821L31.308 25.5972C31.3308 25.6934 31.2702 25.7921 31.1742 25.8174C31.1591 25.8199 31.1439 25.8199 31.1313 25.8199ZM34.2853 33.8477C34.2626 33.8477 34.2399 33.8451 34.2197 33.835C34.1237 33.797 34.0808 33.6907 34.1161 33.5996L41.7601 14.5011C41.8005 14.4074 41.904 14.3644 41.9974 14.3998C42.0909 14.4378 42.1363 14.5441 42.0984 14.6378L34.4545 33.7337C34.4267 33.8046 34.3586 33.8477 34.2853 33.8477ZM49.5732 20.3466C49.5252 20.3466 49.4823 20.3289 49.4469 20.2934C49.4116 20.2605 49.3914 20.2149 49.3914 20.1643V12.2581C49.3914 12.1568 49.4747 12.0758 49.5732 12.0758C49.6742 12.0758 49.755 12.1568 49.755 12.2581V19.977L55.7575 19.8605C55.8434 19.863 55.9419 19.939 55.9444 20.0403C55.9469 20.1415 55.8661 20.2225 55.7651 20.2251L49.5782 20.3466H49.5732ZM61.2222 33.2401C61.1212 33.2401 61.0404 33.1591 61.0404 33.0578V12.2581C61.0404 12.1568 61.1212 12.0758 61.2222 12.0758C61.3232 12.0758 61.404 12.1568 61.404 12.2581V33.0578C61.404 33.1591 61.3232 33.2401 61.2222 33.2401ZM26.6515 44.3969C26.6186 44.3969 26.5833 44.3868 26.553 44.3665C26.4671 44.3108 26.4444 44.1969 26.5 44.1134L28.9293 40.402C26.0227 37.5793 21.7752 37.2046 21.7348 37.2021C21.6338 37.1919 21.5581 37.1033 21.5656 37.0046C21.5732 36.9033 21.6717 36.8274 21.7626 36.8375C21.808 36.84 26.2904 37.2375 29.2929 40.2476C29.3535 40.3109 29.3636 40.4046 29.3156 40.4754L26.803 44.3134C26.7702 44.3665 26.7121 44.3969 26.6515 44.3969ZM54.8788 60.9435C54.803 60.9435 54.7298 60.8929 54.707 60.817L47.0505 37.316C47.0202 37.2198 47.0707 37.1185 47.1666 37.0856C47.2626 37.0527 47.3661 37.1059 47.3964 37.2021L55.0505 60.703C55.0833 60.7992 55.0303 60.903 54.9343 60.9334C54.9166 60.9385 54.8964 60.9435 54.8788 60.9435ZM45.5505 50.8702H45.5303L40.8661 50.3892C40.8106 50.3842 40.7601 50.3538 40.7298 50.3032C40.6995 50.2551 40.6944 50.1968 40.7146 50.1437L43.3459 43.1893C43.3813 43.0956 43.4873 43.0476 43.5808 43.083C43.6742 43.1185 43.7222 43.2248 43.6868 43.3184L41.1388 50.05L45.5681 50.5057C45.6692 50.5183 45.7399 50.6069 45.7298 50.7082C45.7197 50.7993 45.6414 50.8702 45.5505 50.8702ZM63.8484 61.6625C63.75 61.6625 63.6666 61.579 63.6666 61.4802V37.2603C63.6666 37.159 63.75 37.0755 63.8484 37.0755C63.9494 37.0755 64.0328 37.159 64.0328 37.2603V61.4802C64.0328 61.579 63.9494 61.6625 63.8484 61.6625ZM76.8863 61.784C76.798 61.784 76.7197 61.7182 76.707 61.6271C76.6919 61.5283 76.7575 61.4347 76.8585 61.4195C80.9267 60.7916 83.8383 59.1841 85.5126 56.6347C87.2373 54.0145 87.5833 50.4399 86.5176 46.2956C84.654 39.0552 76.9242 37.2147 76.8459 37.197C76.7474 37.1742 76.6868 37.0755 76.7096 36.9793C76.7323 36.8805 76.8333 36.8223 76.9267 36.84C77.005 36.8603 84.9495 38.7514 86.8687 46.207C87.9621 50.45 87.5984 54.1284 85.8181 56.8347C84.0833 59.4727 81.0883 61.1385 76.9141 61.7815C76.904 61.7815 76.8964 61.784 76.8863 61.784ZM24.0202 70.2953C23.9242 70.2953 23.8434 70.2168 23.8384 70.1206L23.7197 66.5207C23.7146 66.4219 23.7954 66.3384 23.8939 66.3333C24 66.3257 24.0783 66.4093 24.0833 66.508L24.202 70.108C24.207 70.2067 24.1262 70.2902 24.0278 70.2953H24.0202ZM19.2348 83.485C19.1363 83.485 19.0581 83.4091 19.053 83.3154L18.8156 70.8725C18.8131 70.7738 18.8939 70.6953 18.9924 70.6928H18.9974C19.0959 70.6928 19.1767 70.7687 19.1793 70.8624L19.4192 83.3078C19.4217 83.404 19.3409 83.4825 19.2399 83.485H19.2348ZM38.7904 80.7255H38.7828C36.4394 80.6015 35.2171 78.5636 35.1666 78.4775C35.1388 78.4319 35.1338 78.3787 35.1515 78.3281C35.1666 78.2775 35.2045 78.237 35.2525 78.2167C39.3762 76.4952 38.6212 71.989 38.6136 71.9409C38.0378 67.1055 31.9091 66.8194 31.8485 66.8169C31.7475 66.8118 31.6692 66.7283 31.6717 66.627C31.6742 66.5283 31.7575 66.4523 31.8535 66.4523H31.8611C31.9267 66.4549 38.3636 66.7561 38.9722 71.8902C38.9798 71.9257 39.7575 76.5712 35.5934 78.4648C35.9394 78.9458 37.0404 80.2673 38.803 80.361C38.9015 80.3661 38.9798 80.4521 38.9722 80.5534C38.9671 80.6496 38.8888 80.7255 38.7904 80.7255ZM52.9671 82.166C52.9217 82.166 52.8787 82.1508 52.8434 82.1179C52.7676 82.0521 52.7626 81.9357 52.8308 81.8623C57.255 76.9611 54.2575 66.9105 54.2272 66.8093C54.1969 66.7131 54.2525 66.6118 54.3485 66.5814C54.4444 66.5536 54.5454 66.6068 54.5757 66.703C54.5833 66.7283 55.3611 69.308 55.5681 72.47C55.7626 75.4041 55.4899 79.4572 53.101 82.1078C53.0631 82.1483 53.0151 82.166 52.9671 82.166ZM48.452 80.2294C48.3384 80.2294 48.2247 80.2192 48.1111 80.1965C46.5934 79.9129 45.6616 77.8294 45.6237 77.7408C44.0555 73.875 46.2424 68.1308 46.3358 67.8878C46.3737 67.7941 46.4772 67.7485 46.5707 67.7839C46.6641 67.8219 46.7121 67.9257 46.6767 68.0219C46.654 68.0801 44.4494 73.8725 45.957 77.599C45.9646 77.6142 46.8484 79.5914 48.1767 79.8395C48.7626 79.9509 49.3661 79.7003 49.9671 79.0977C50.0353 79.0243 50.1515 79.0243 50.2222 79.0977C50.2954 79.1686 50.2954 79.2825 50.2222 79.356C49.6439 79.9357 49.048 80.2294 48.452 80.2294ZM69.4697 70.4751C69.3737 70.4751 69.2929 70.4016 69.2878 70.3029L69.0606 66.7637L58.351 67.1181H58.3484C58.2474 67.1181 58.1692 67.0396 58.1641 66.9409C58.1591 66.8422 58.2399 66.7561 58.3409 66.7536L69.2247 66.3916H69.2298C69.3283 66.3916 69.4065 66.4675 69.4116 66.5637L69.6515 70.2801C69.6591 70.3814 69.5833 70.4675 69.4798 70.4751H69.4697ZM68.5681 76.2547C68.4747 76.2598 68.3914 76.1889 68.3788 76.0952L68.058 73.2725L62.9671 73.4472C62.8661 73.4522 62.7828 73.3738 62.7777 73.2725C62.7752 73.1712 62.856 73.0877 62.9545 73.0826L68.2121 72.9029C68.3081 72.9003 68.3914 72.9712 68.4015 73.0674L68.7424 76.0547C68.7525 76.1535 68.6818 76.2421 68.5808 76.2547H68.5681ZM69.707 83.4268C69.6085 83.4268 69.5252 83.3432 69.5252 83.242V79.8319L63.255 79.9483C63.1489 79.9686 63.0707 79.8699 63.0681 79.7686C63.0656 79.6673 63.1464 79.5863 63.2474 79.5838L69.7045 79.4623C69.7525 79.4547 69.8005 79.4825 69.8358 79.5154C69.8712 79.5484 69.8888 79.5965 69.8888 79.6471V83.242C69.8888 83.3432 69.808 83.4268 69.707 83.4268Z" fill="white"/>
<path d="M80.2348 75.6902C80.1768 75.6902 80.1187 75.6623 80.0833 75.6092C80.0278 75.5256 80.0505 75.4117 80.1338 75.356C81.8157 74.232 81.495 71.2421 81.4899 71.2118C80.5783 66.8802 76.3384 67.0523 76.298 67.0574C76.1919 67.0726 76.1111 66.9865 76.1061 66.8852C76.101 66.7839 76.1793 66.6979 76.2803 66.6928C76.3232 66.6928 80.8712 66.4979 81.8485 71.1535C81.8662 71.3029 82.202 74.4142 80.3359 75.6623C80.303 75.6826 80.2702 75.6902 80.2348 75.6902Z" fill="#F2E82F"/>
<path d="M21.149 61.541C21.0631 61.541 20.9874 61.4802 20.9697 61.3942C20.952 61.2954 21.0177 61.1992 21.1162 61.1815C25.9242 60.2676 28.6338 57.3056 28.7424 52.8424C28.8561 48.1336 23.5581 47.0424 23.505 47.0323C23.3636 47.0197 19.548 46.6678 18.2323 46.3083C16.798 45.9159 16.7828 44.4678 16.7828 44.4526C16.7828 44.3539 16.8611 44.2703 16.9646 44.2703C17.0631 44.2703 17.1439 44.3539 17.1465 44.4526C17.1465 44.5007 17.1667 45.6374 18.3258 45.9564C19.6136 46.3057 23.5202 46.6677 23.5581 46.6703C23.6338 46.6829 29.2273 47.8374 29.1061 52.85C28.9924 57.4398 26.106 60.6043 21.1843 61.541H21.149Z" fill="white"/>
<defs>
<linearGradient id="paint0_linear" x1="49.9627" y1="106.303" x2="49.9627" y2="-3.9211" gradientUnits="userSpaceOnUse">
<stop stop-color="#771872"/>
<stop offset="1" stop-color="#BE297E"/>
</linearGradient>
</defs>
</svg>
