<svg width="750" height="750" viewBox="0 0 750 750" fill="none" xmlns="http://www.w3.org/2000/svg">
<g opacity="0.25">
<g clip-path="url(#clip0_2:355)">
<path d="M408.005 304.228C406.016 300.481 405.565 296.572 406.652 292.516C407.763 288.37 410.209 285.269 414.004 283.22C417.795 281.168 421.686 280.686 425.687 281.758C429.408 282.755 432.256 284.895 434.215 288.192C436.181 291.491 436.574 295.302 435.414 299.633C434.254 303.963 431.946 307.298 428.468 309.646C425 311.98 421.234 312.578 417.129 311.479C413.038 310.382 409.987 307.974 408.005 304.228V304.228ZM437.919 279.689L415.783 271.822L423.121 244.431C423.677 244.99 425.009 245.757 427.142 246.771C429.264 247.783 431.157 248.519 432.829 248.968C436.651 249.992 440.19 249.874 443.466 248.62C446.74 247.381 448.813 245.132 449.678 241.903C450.489 238.874 450.182 236.036 448.741 233.436C447.29 230.816 444.707 229.009 440.988 228.013C437.36 227.041 434.273 227.378 431.746 229.029C429.196 230.659 427.182 232.973 425.694 235.936L410.379 224.403C412.259 219.282 415.355 214.945 419.702 211.402C424.03 207.872 429.064 205.497 434.784 204.275C440.499 203.018 446.252 203.182 452.013 204.726C458.623 206.497 464.069 209.793 468.366 214.602C472.659 219.409 475.512 224.963 476.924 231.262C478.315 237.571 478.217 243.761 476.581 249.866C474.806 256.492 471.612 261.688 467.027 265.396C462.45 269.107 457.577 271.442 452.441 272.378C447.292 273.327 443.016 273.297 439.604 272.268L437.919 279.689V279.689ZM462.566 309.007C461.578 304.692 462.196 300.675 464.411 297.005C465.903 294.534 467.951 292.672 470.575 291.407C473.197 290.142 475.982 289.576 478.935 289.728C481.871 289.875 484.584 290.684 487.072 292.154C490.706 294.325 493.06 297.35 494.166 301.238C495.249 305.12 494.587 309.059 492.162 313.067C489.796 316.993 486.483 319.549 482.234 320.739C477.966 321.925 473.895 321.359 470.003 319.037C466.035 316.678 463.561 313.325 462.566 309.007V309.007ZM476.294 280.393L509.674 219.192L536.838 235.409L501.98 292.885L476.294 280.393" fill="#6B28BB"/>
<path d="M220.474 476.427C219.887 472.225 220.8 468.398 223.208 464.959C225.67 461.442 229.03 459.365 233.297 458.737C237.561 458.106 241.382 458.983 244.775 461.359C247.931 463.568 249.875 466.554 250.589 470.323C251.308 474.094 250.373 477.811 247.802 481.483C245.23 485.156 241.922 487.5 237.85 488.517C233.793 489.524 230.049 488.798 226.568 486.361C223.099 483.931 221.056 480.625 220.474 476.427V476.427ZM256.977 463.598L238.867 448.635L255.131 425.406C255.462 426.121 256.451 427.298 258.108 428.98C259.757 430.657 261.283 431.996 262.702 432.989C265.943 435.259 269.308 436.358 272.816 436.3C276.316 436.256 279.033 434.852 280.95 432.114C282.749 429.544 283.431 426.772 282.966 423.836C282.499 420.879 280.689 418.297 277.535 416.088C274.459 413.934 271.443 413.195 268.503 413.883C265.55 414.542 262.866 416.028 260.454 418.303L250.007 402.228C253.526 398.058 257.918 395.042 263.214 393.2C268.489 391.362 274.031 390.853 279.824 391.66C285.625 392.434 290.975 394.556 295.86 397.977C301.466 401.902 305.456 406.862 307.849 412.85C310.239 418.836 311.02 425.03 310.193 431.433C309.342 437.837 307.133 443.62 303.507 448.798C299.573 454.417 294.795 458.208 289.218 460.123C283.648 462.045 278.271 462.573 273.124 461.696C267.961 460.827 263.953 459.335 261.099 457.201L256.977 463.598V463.598ZM270.11 499.579C270.658 495.186 272.612 491.623 275.95 488.931C278.196 487.12 280.757 486.07 283.656 485.779C286.553 485.487 289.363 485.908 292.086 487.06C294.795 488.203 297.068 489.891 298.903 492.123C301.575 495.406 302.753 499.054 302.462 503.086C302.151 507.104 300.182 510.579 296.532 513.516C292.967 516.396 288.979 517.665 284.579 517.33C280.164 516.984 276.532 515.06 273.669 511.547C270.747 507.973 269.569 503.977 270.11 499.579V499.579ZM292.797 477.386L345.096 431.291L365.075 455.821L312.661 497.909L292.797 477.386" fill="#6B28BB"/>
<path d="M245.45 74.2572C241.802 65.6838 241.558 57.0552 244.709 48.4054C247.931 39.5598 253.88 33.2598 262.586 29.5155C271.283 25.7676 279.9 25.466 288.462 28.5825C296.426 31.4809 302.26 36.7097 305.928 44.2922C309.608 51.8794 309.744 60.2838 306.38 69.5211C303.015 78.7584 297.325 85.5972 289.257 90.0543C281.214 94.4836 272.849 95.0615 264.064 91.8639C255.308 88.6769 249.081 82.8247 245.45 74.2572ZM315.659 26.4293L268.65 4.95723L289.933 -53.4694C291.044 -52.1407 293.817 -50.2074 298.298 -47.5783C302.756 -44.9575 306.763 -42.9817 310.343 -41.6786C318.523 -38.7015 326.299 -38.2741 333.715 -40.3808C341.125 -42.4525 346.094 -46.9656 348.603 -53.8527C350.957 -60.3156 350.822 -66.5755 348.159 -72.5355C345.478 -78.5389 340.161 -82.9878 332.201 -85.885C324.437 -88.7107 317.608 -88.5716 311.757 -85.452C305.861 -82.3853 301.008 -77.7193 297.185 -71.5323L265.817 -99.6956C270.911 -110.522 278.519 -119.398 288.715 -126.296C298.87 -133.173 310.352 -137.386 323.117 -138.951C335.879 -140.59 348.454 -139.119 360.784 -134.631C374.932 -129.481 386.238 -121.226 394.74 -109.887C403.233 -98.5526 408.428 -85.8669 410.327 -71.8303C412.175 -57.7753 410.783 -44.2707 406.039 -31.2471C400.891 -17.1138 392.907 -6.37854 382.154 0.835202C371.421 8.0561 360.3 12.2156 348.868 13.2674C337.405 14.3446 328.04 13.4499 320.76 10.5412L315.659 26.4293ZM364.093 95.2588C362.748 85.6383 364.866 76.9822 370.418 69.3911C374.156 64.2823 378.996 60.6099 384.986 58.3538C390.973 56.0966 397.181 55.3988 403.623 56.3017C410.029 57.1915 415.82 59.4841 420.993 63.1783C428.544 68.6252 433.127 75.6905 434.811 84.3995C436.445 93.0906 434.247 101.57 428.171 109.857C422.242 117.976 414.497 122.921 404.96 124.699C395.384 126.463 386.572 124.438 378.484 118.611C370.238 112.69 365.453 104.885 364.093 95.2588ZM399.611 35.3963L484.38 -91.8638L540.82 -51.1737L453.519 67.6599L399.611 35.3963Z" fill="#6B28BB"/>
<path d="M245.45 824.257C241.802 815.684 241.558 807.055 244.709 798.405C247.931 789.56 253.88 783.26 262.586 779.516C271.283 775.768 279.9 775.466 288.462 778.583C296.426 781.481 302.26 786.71 305.928 794.292C309.608 801.879 309.744 810.284 306.38 819.521C303.015 828.758 297.325 835.597 289.257 840.054C281.214 844.484 272.849 845.062 264.064 841.864C255.308 838.677 249.081 832.825 245.45 824.257ZM315.659 776.429L268.65 754.957L289.933 696.531C291.044 697.859 293.817 699.793 298.298 702.422C302.756 705.043 306.763 707.018 310.343 708.321C318.523 711.299 326.299 711.726 333.715 709.619C341.125 707.548 346.094 703.034 348.603 696.147C350.957 689.684 350.822 683.424 348.159 677.464C345.478 671.461 340.161 667.012 332.201 664.115C324.437 661.289 317.608 661.428 311.757 664.548C305.861 667.615 301.008 672.281 297.185 678.468L265.817 650.304C270.911 639.478 278.519 630.602 288.715 623.704C298.87 616.827 310.352 612.614 323.117 611.049C335.879 609.41 348.454 610.881 360.784 615.369C374.932 620.519 386.238 628.774 394.74 640.113C403.233 651.447 408.428 664.133 410.327 678.17C412.175 692.225 410.783 705.729 406.039 718.753C400.891 732.886 392.907 743.621 382.154 750.835C371.421 758.056 360.3 762.216 348.868 763.267C337.405 764.345 328.04 763.45 320.76 760.541L315.659 776.429ZM364.093 845.259C362.748 835.638 364.866 826.982 370.418 819.391C374.156 814.282 378.996 810.61 384.986 808.354C390.973 806.097 397.181 805.399 403.623 806.302C410.029 807.192 415.82 809.484 420.993 813.178C428.544 818.625 433.127 825.691 434.811 834.399C436.445 843.091 434.247 851.57 428.171 859.857C422.242 867.976 414.497 872.921 404.96 874.699C395.384 876.463 386.572 874.438 378.484 868.611C370.238 862.69 365.453 854.885 364.093 845.259ZM399.611 785.396L484.38 658.136L540.82 698.826L453.519 817.66L399.611 785.396Z" fill="#6B28BB"/>
<path d="M587.533 506.105C583.172 497.888 582.187 489.317 584.572 480.427C587.01 471.334 592.377 464.538 600.701 460.043C609.015 455.546 617.548 454.488 626.32 456.839C634.479 459.025 640.723 463.719 645.018 470.947C649.327 478.179 650.185 486.536 647.639 496.031C645.092 505.525 640.03 512.836 632.401 517.984C624.794 523.102 616.536 524.413 607.535 522.002C598.565 519.598 591.877 514.318 587.533 506.105ZM653.145 452.303L604.609 435.054L620.718 375C621.936 376.225 624.856 377.907 629.533 380.131C634.186 382.348 638.336 383.964 642.004 384.946C650.384 387.192 658.144 386.934 665.327 384.184C672.509 381.469 677.055 376.538 678.954 369.459C680.736 362.816 680.063 356.594 676.905 350.893C673.726 345.15 668.062 341.187 659.907 339.002C651.953 336.871 645.183 337.61 639.64 341.231C634.048 344.804 629.63 349.877 626.365 356.374L592.788 331.087C596.915 319.858 603.707 310.35 613.24 302.583C622.734 294.842 633.774 289.637 646.317 286.957C658.851 284.202 671.467 284.562 684.099 287.946C698.593 291.83 710.533 299.057 719.953 309.6C729.363 320.141 735.615 332.317 738.709 346.128C741.754 359.962 741.535 373.533 737.944 386.919C734.047 401.446 727.041 412.839 716.983 420.968C706.945 429.103 696.258 434.223 684.995 436.275C673.703 438.356 664.325 438.289 656.844 436.032L653.145 452.303ZM707.173 516.586C705.009 507.124 706.368 498.318 711.228 490.27C714.501 484.854 718.992 480.771 724.747 477.998C730.498 475.223 736.605 473.982 743.08 474.315C749.519 474.638 755.468 476.412 760.923 479.636C768.891 484.396 774.051 491.029 776.473 499.553C778.845 508.064 777.391 516.701 772.07 525.488C766.88 534.095 759.614 539.7 750.295 542.309C740.936 544.908 732.01 543.667 723.476 538.576C714.777 533.404 709.353 526.053 707.173 516.586ZM737.296 453.85L810.531 319.666L870.088 355.223L793.612 481.238L737.296 453.85Z" fill="#6B28BB"/>
<path d="M-162.467 506.105C-166.828 497.888 -167.813 489.317 -165.428 480.426C-162.99 471.334 -157.623 464.537 -149.299 460.043C-140.985 455.546 -132.452 454.488 -123.68 456.839C-115.521 459.025 -109.277 463.718 -104.982 470.947C-100.673 478.179 -99.8145 486.536 -102.361 496.031C-104.908 505.525 -109.97 512.836 -117.599 517.984C-125.206 523.102 -133.464 524.413 -142.465 522.001C-151.435 519.598 -158.123 514.318 -162.467 506.105ZM-96.8548 452.303L-145.391 435.054L-129.282 375C-128.064 376.225 -125.144 377.906 -120.467 380.131C-115.814 382.348 -111.664 383.964 -107.996 384.946C-99.6164 387.192 -91.8564 386.934 -84.6726 384.183C-77.4911 381.469 -72.9451 376.538 -71.0462 369.458C-69.2643 362.816 -69.9371 356.594 -73.095 350.893C-76.2741 345.15 -81.9379 341.187 -90.0929 339.002C-98.0466 336.871 -104.817 337.61 -110.36 341.231C-115.952 344.804 -120.37 349.877 -123.635 356.374L-157.212 331.087C-153.085 319.858 -146.293 310.35 -136.76 302.583C-127.266 294.842 -116.226 289.637 -103.683 286.956C-91.1488 284.202 -78.5329 284.561 -65.901 287.946C-51.4066 291.83 -39.4673 299.057 -30.0471 309.6C-20.6369 320.141 -14.3849 332.317 -11.2909 346.128C-8.24619 359.962 -8.46545 373.532 -12.0562 386.919C-15.953 401.446 -22.9586 412.839 -33.017 420.968C-43.0553 429.102 -53.7419 434.223 -65.0049 436.275C-76.297 438.356 -85.6747 438.289 -93.1559 436.032L-96.8548 452.303ZM-42.8272 516.586C-44.9906 507.124 -43.6321 498.317 -38.7719 490.27C-35.4989 484.854 -31.008 480.771 -25.2532 477.997C-19.5017 475.223 -13.3953 473.982 -6.91969 474.315C-0.480986 474.638 5.46772 476.412 10.9232 479.635C18.8911 484.396 24.0509 491.028 26.4729 499.553C28.8447 508.064 27.3913 516.701 22.0701 525.488C16.8801 534.095 9.61388 539.7 0.295055 542.309C-9.06404 544.908 -17.9902 543.667 -26.5239 538.575C-35.2231 533.404 -40.6471 526.052 -42.8272 516.586ZM-12.7037 453.85L60.5314 319.666L120.088 355.223L43.6125 481.238L-12.7037 453.85Z" fill="#6B28BB"/>
<path d="M18.8914 69.995C16.5827 66.435 15.7932 62.5798 16.5221 58.4455C17.2674 54.2176 19.4342 50.916 23.0367 48.5431C26.6344 46.1694 30.4683 45.3494 34.5473 46.0686C38.3407 46.7375 41.3648 48.6219 43.6042 51.7354C45.8499 54.8499 46.5734 58.6129 45.7951 63.0281C45.0168 67.4432 43.0089 70.966 39.7483 73.6083C36.4968 76.2362 32.7974 77.1602 28.6123 76.4222C24.4413 75.6868 21.1924 73.5536 18.8914 69.995V69.995ZM46.5527 42.9413L23.8154 37.034L28.7384 9.10777C29.3406 9.61611 30.734 10.264 32.9474 11.0886C35.1498 11.9113 37.0993 12.4802 38.8048 12.7809C42.7013 13.4679 46.2162 13.0421 49.3701 11.507C52.5243 9.98808 54.3928 7.56688 54.9731 4.27502C55.5177 1.18597 54.9639 -1.61424 53.3019 -4.07893C51.6287 -6.56169 48.8976 -8.13702 45.1057 -8.80563C41.4075 -9.45773 38.3613 -8.85277 35.9874 -6.98711C33.5898 -5.14173 31.7849 -2.66098 30.561 0.420884L14.2987 -9.73362C15.7257 -14.9995 18.4319 -19.5895 22.4529 -23.4973C26.4571 -27.3918 31.265 -30.1957 36.8562 -31.9123C42.4405 -33.6623 48.1861 -34.0004 54.0596 -32.9647C60.7991 -31.7763 66.5113 -28.9675 71.2113 -24.5515C75.9066 -20.1364 79.2324 -14.8529 81.1888 -8.7008C83.1237 -2.53642 83.5653 3.63811 82.468 9.863C81.2771 16.6183 78.5489 22.0731 74.3037 26.1664C70.0679 30.2615 65.4173 33.0127 60.3825 34.3931C55.3356 35.7874 51.0727 36.1295 47.5841 35.4018L46.5527 42.9413V42.9413ZM73.6606 70.0005C72.3004 65.7874 72.5663 61.7323 74.4533 57.8826C75.7242 55.2916 77.6015 53.2581 80.1053 51.7692C82.6074 50.2801 85.332 49.4735 88.2871 49.3672C91.225 49.2579 93.9981 49.8273 96.6051 51.0752C100.415 52.9212 103.023 55.7298 104.464 59.5066C105.88 63.2793 105.565 67.2613 103.498 71.4653C101.483 75.5821 98.4058 78.4176 94.2765 79.9737C90.1284 81.5265 86.0238 81.3174 81.944 79.3433C77.7858 77.3393 75.0285 74.215 73.6606 70.0005V70.0005ZM84.8432 40.2987L112.761 -23.5792L141.236 -9.79144L111.519 50.5038L84.8432 40.2987" fill="#6B28BB"/>
<path d="M18.8914 819.995C16.5827 816.435 15.7932 812.58 16.5221 808.445C17.2674 804.218 19.4342 800.916 23.0367 798.543C26.6344 796.169 30.4683 795.349 34.5473 796.069C38.3407 796.737 41.3648 798.622 43.6042 801.735C45.8499 804.85 46.5734 808.613 45.7951 813.028C45.0168 817.443 43.0089 820.966 39.7483 823.608C36.4968 826.236 32.7974 827.16 28.6123 826.422C24.4413 825.687 21.1924 823.554 18.8914 819.995V819.995ZM46.5527 792.941L23.8154 787.034L28.7384 759.108C29.3406 759.616 30.734 760.264 32.9474 761.089C35.1498 761.911 37.0993 762.48 38.8048 762.781C42.7013 763.468 46.2162 763.042 49.3701 761.507C52.5243 759.988 54.3928 757.567 54.9731 754.275C55.5177 751.186 54.9639 748.386 53.3019 745.921C51.6287 743.438 48.8976 741.863 45.1057 741.194C41.4075 740.542 38.3613 741.147 35.9874 743.013C33.5898 744.858 31.7849 747.339 30.561 750.421L14.2987 740.266C15.7257 735 18.4319 730.41 22.4529 726.503C26.4571 722.608 31.265 719.804 36.8562 718.088C42.4405 716.338 48.1861 716 54.0596 717.035C60.7991 718.224 66.5113 721.032 71.2113 725.448C75.9066 729.864 79.2324 735.147 81.1888 741.299C83.1237 747.464 83.5653 753.638 82.468 759.863C81.2771 766.618 78.5489 772.073 74.3037 776.166C70.0679 780.261 65.4173 783.013 60.3825 784.393C55.3356 785.787 51.0727 786.13 47.5841 785.402L46.5527 792.941V792.941ZM73.6606 820C72.3004 815.787 72.5663 811.732 74.4533 807.883C75.7242 805.292 77.6015 803.258 80.1053 801.769C82.6074 800.28 85.332 799.474 88.2871 799.367C91.225 799.258 93.9981 799.827 96.6051 801.075C100.415 802.921 103.023 805.73 104.464 809.507C105.88 813.279 105.565 817.261 103.498 821.465C101.483 825.582 98.4058 828.418 94.2765 829.974C90.1284 831.526 86.0238 831.317 81.944 829.343C77.7858 827.339 75.0285 824.215 73.6606 820V820ZM84.8432 790.299L112.761 726.421L141.236 740.209L111.519 800.504L84.8432 790.299" fill="#6B28BB"/>
</g>
</g>
<defs>
<clipPath id="clip0_2:355">
<rect width="750" height="750" fill="white"/>
</clipPath>
</defs>
</svg>
